<?xml version="1.0" encoding="utf-8"?>
<svg width="111.32625px" height="127.67856px" viewBox="0 0 111.32625 127.67856" version="1.1" xmlns:xlink="http://www.w3.org/1999/xlink" xmlns="http://www.w3.org/2000/svg">
  <defs>
    <path d="M111.326 0L111.326 0L111.326 127.679L0 127.679L0 0L111.326 0Z" id="path_1" />
    <clipPath id="clip_1">
      <use xlink:href="#path_1" clip-rule="evenodd" fill-rule="evenodd" />
    </clipPath>
  </defs>
  <g id="Group">
    <g id="Frame">
      <path d="M111.326 0L111.326 0L111.326 127.679L0 127.679L0 0L111.326 0Z" id="Frame" fill="none" stroke="none" />
      <g id="Group" transform="translate(0 16.049606)" clip-path="url(#clip_1)">
        <path d="M55.7466 80.7204C56.3286 80.8344 56.9096 80.9254 57.4896 81.0064L56.6776 64.1494C56.4186 64.0694 56.1406 63.9844 55.8396 63.8914C55.3786 63.6904 54.8556 63.4854 54.3036 63.2254C54.0366 63.0774 53.7576 62.9234 53.4686 62.7634C53.4036 62.7264 53.3356 62.6864 53.2686 62.6494C53.7006 67.9074 54.2416 74.5814 54.6936 80.4914C55.0436 80.5724 55.3926 80.6504 55.7466 80.7204L55.7466 80.7204Z" id="Shape" fill="#3F3F3F" stroke="none" />
        <path d="M56.3806 88.2564C56.8616 88.3184 57.3526 88.3704 57.8476 88.4164L57.6946 85.2464C56.8526 85.3244 55.9756 85.3924 55.0656 85.4494C55.1326 86.3774 55.1956 87.2614 55.2536 88.0894C55.6246 88.1484 55.9996 88.2054 56.3806 88.2564L56.3806 88.2564Z" id="Shape" fill="#3F3F3F" stroke="none" />
        <path d="M54.9026 58.8134C55.1916 59.0194 55.5106 59.2024 55.8276 59.3954C56.0346 59.5184 56.2486 59.6324 56.4656 59.7424L55.9936 49.9334C55.9156 50.1244 55.8026 50.3034 55.6536 50.4504C55.5226 50.5744 55.3936 50.6674 55.2106 50.7514L55.1166 50.7904L55.0106 50.8274L54.8266 50.8904C54.5836 50.9754 54.3386 51.0454 54.1046 51.1204C53.8386 51.2024 53.5816 51.2754 53.3376 51.3394L53.5456 52.5324C53.6996 53.4124 53.3256 54.2884 52.6166 54.7914C52.6676 55.4044 52.7336 56.1894 52.8106 57.1134C52.9746 57.2684 53.1576 57.4374 53.3606 57.6174C53.7946 57.9954 54.3136 58.4154 54.9026 58.8134L54.9026 58.8134Z" id="Shape" fill="#3F3F3F" stroke="none" />
        <path d="M53.3486 62.0454C53.4826 62.1414 53.6216 62.2264 53.7536 62.3154C54.0206 62.4924 54.2776 62.6624 54.5246 62.8264C55.0366 63.1234 55.5266 63.3674 55.9616 63.6034C56.2116 63.7074 56.4466 63.8044 56.6666 63.8954L56.5106 60.6494L56.4796 60.6354C55.7596 60.2754 55.0706 59.8514 54.4886 59.3724C53.8996 58.9034 53.4106 58.3964 53.0346 57.9314C52.9726 57.8554 52.9176 57.7824 52.8606 57.7084C52.9626 58.9314 53.0806 60.3614 53.2106 61.9334C53.2566 61.9704 53.3036 62.0084 53.3486 62.0454L53.3486 62.0454Z" id="Shape" fill="#3F3F3F" stroke="none" />
        <path d="M59.7346 97.1764C58.8786 97.0334 58.2296 96.3484 58.1906 95.5474L57.8826 89.1574C57.3416 89.0954 56.8066 89.0244 56.2816 88.9474C55.9506 88.8964 55.6236 88.8404 55.3006 88.7814C55.4486 90.9554 55.5526 92.6924 55.5896 93.7444C55.6196 94.4284 55.4016 95.7744 53.6106 97.0994C53.2116 97.3945 52.7456 97.6745 52.2186 97.9404C52.2666 97.9494 52.3126 97.9614 52.3606 97.9704C57.6056 98.9994 62.8216 99.1514 67.8596 98.5334L59.7346 97.1764L59.7346 97.1764Z" id="Shape" fill="#3F3F3F" stroke="none" />
        <path d="M53.6816 37.2474C51.8856 38.4584 50.3596 40.0634 49.2576 41.8894C49.1246 42.1204 48.9656 42.3364 48.8536 42.5774L48.5066 43.2934C48.2466 43.7634 48.1036 44.2504 47.9136 44.7274L47.7766 45.0854C47.7386 45.2134 47.7066 45.3494 47.6706 45.4804C47.6016 45.7444 47.5326 46.0084 47.4636 46.2714L47.3706 46.6284L47.3116 47.0104C47.2716 47.2644 47.2316 47.5184 47.1916 47.7704C47.1776 47.8824 47.1696 47.9944 47.1576 48.1064C48.3146 47.9854 49.4866 47.8784 50.6356 47.7984C50.6896 47.7944 50.7426 47.7924 50.7956 47.7924C51.9086 47.7924 52.8556 48.5884 53.0476 49.6854L53.2346 50.7544C53.4336 50.6594 53.6436 50.5634 53.8616 50.4684C54.0876 50.3724 54.3186 50.2654 54.5586 50.1714L54.7386 50.0994L54.9006 50.0314C54.9536 50.0044 55.0426 49.9454 55.0976 49.8864C55.2246 49.7674 55.3066 49.6034 55.3376 49.4314C55.3506 49.3614 55.3546 49.2164 55.3706 49.0794C55.3856 48.9464 55.4036 48.8154 55.4256 48.6874C55.4656 48.4304 55.5346 48.1884 55.6086 47.9634C55.6746 47.7444 55.7806 47.5174 55.8486 47.3634C55.8556 47.3444 55.8586 47.3224 55.8646 47.3034L55.8266 46.5054C55.7526 46.3354 55.6766 46.2424 55.6766 46.2424C55.6766 46.2424 55.7056 46.2594 55.7616 46.2904C55.7766 46.3004 55.7986 46.3164 55.8176 46.3294L55.7016 43.8644C55.6656 43.5764 55.6556 43.2884 55.6696 43.0104C55.6756 42.8854 55.6876 42.7624 55.7036 42.6394C55.0906 42.0194 54.7256 41.5904 54.7256 41.5904C54.7256 41.5904 55.1426 41.8284 55.7726 42.2464C56.1146 40.6764 57.2356 39.3614 58.7676 38.7654C58.9556 38.3024 59.2526 37.9004 59.6556 37.5644C59.7006 37.5274 59.7276 37.4994 59.7426 37.4824C59.7356 37.4204 59.7096 37.3064 59.6896 37.2204C59.4416 36.1384 59.6926 35.3334 60.4196 34.8064C60.1626 34.8334 59.9066 34.8664 59.6496 34.9054C57.5446 35.2354 55.4826 36.0424 53.6816 37.2474L53.6816 37.2474Z" id="Shape" fill="#3F3F3F" stroke="none" />
        <path d="M63.6076 72.5174C63.7636 72.6864 63.9596 72.8194 64.1946 72.9174C64.4296 73.0144 64.6966 73.0814 64.9966 73.1174C65.1976 73.1414 65.3796 73.1524 65.5436 73.1504C65.7076 73.1484 65.8546 73.1394 65.9856 73.1224C66.1166 73.1054 66.2326 73.0824 66.3346 73.0524C66.4356 73.0224 66.5226 72.9934 66.5946 72.9644L66.7176 71.7614L65.4876 71.6124L65.4506 71.9894C65.4386 72.1104 65.4016 72.1944 65.3376 72.2414C65.2746 72.2884 65.1846 72.3054 65.0686 72.2914C64.9526 72.2774 64.8686 72.2394 64.8156 72.1784C64.7626 72.1174 64.7426 72.0264 64.7546 71.9054L64.8926 70.4954C64.9046 70.3734 64.9416 70.2894 65.0056 70.2414C65.0696 70.1934 65.1586 70.1764 65.2756 70.1914C65.3916 70.2054 65.4766 70.2434 65.5296 70.3054C65.5826 70.3674 65.6026 70.4594 65.5906 70.5804L65.5566 70.9174L66.7886 71.0674L66.9086 69.8964C66.8366 69.8494 66.7546 69.7994 66.6606 69.7454C66.5676 69.6914 66.4576 69.6394 66.3326 69.5914C66.2076 69.5424 66.0646 69.4974 65.9056 69.4564C65.7466 69.4154 65.5636 69.3814 65.3576 69.3564C65.0596 69.3204 64.7846 69.3214 64.5336 69.3614C64.2836 69.4014 64.0656 69.4854 63.8816 69.6154C63.6976 69.7454 63.5476 69.9244 63.4326 70.1544C63.3176 70.3834 63.2436 70.6684 63.2116 71.0084C63.1796 71.3504 63.1976 71.6464 63.2676 71.8944C63.3386 72.1404 63.4516 72.3484 63.6076 72.5174L63.6076 72.5174Z" id="Shape" fill="#3F3F3F" stroke="none" />
        <path d="M77.3586 70.8794C77.3586 70.8794 75.4496 70.6474 75.4496 70.6474C75.4496 70.6474 75.3566 71.4154 75.3566 71.4154C75.3566 71.4154 75.6646 71.4524 75.6646 71.4524C75.6646 71.4524 75.4106 73.5464 75.4106 73.5464C75.4106 73.5464 75.1036 73.5094 75.1036 73.5094C75.1036 73.5094 75.0116 74.2674 75.0116 74.2674C75.0116 74.2674 76.7976 74.4844 76.7976 74.4844C76.7976 74.4844 76.8926 73.7264 76.8926 73.7264C76.8926 73.7264 76.5856 73.6894 76.5856 73.6894C76.5856 73.6894 76.7516 72.3564 76.7516 72.3564C76.7516 72.3564 77.9866 74.6294 77.9866 74.6294C77.9866 74.6294 79.4206 74.8024 79.4206 74.8024C79.4206 74.8024 79.7936 71.9544 79.7936 71.9544C79.7936 71.9544 80.1016 71.9914 80.1016 71.9914C80.1016 71.9914 80.2026 71.2244 80.2026 71.2244C80.2026 71.2244 78.4026 71.0064 78.4026 71.0064C78.4026 71.0064 78.3046 71.7734 78.3046 71.7734C78.3046 71.7734 78.6126 71.8114 78.6126 71.8114C78.6126 71.8114 78.4706 72.9194 78.4706 72.9194C78.4706 72.9194 77.3586 70.8794 77.3586 70.8794Z" id="Polygon" fill="#3F3F3F" fill-rule="evenodd" stroke="none" />
        <path d="M79.7876 66.0964C78.8716 65.5934 77.9716 65.2434 77.1616 64.9784C76.3506 64.7124 75.6236 64.5464 75.0236 64.4304C74.4226 64.3134 73.9446 64.2544 73.6206 64.2154C73.2956 64.1814 73.1226 64.1624 73.1226 64.1624C73.1226 64.1624 73.2946 64.1934 73.6156 64.2514C73.7766 64.2794 73.9726 64.3244 74.2036 64.3724C74.3196 64.3954 74.4426 64.4284 74.5736 64.4584C74.7056 64.4894 74.8456 64.5204 74.9916 64.5604C75.5786 64.7094 76.2836 64.9214 77.0666 65.2184C77.8466 65.5184 78.7046 65.9044 79.5706 66.4224C80.4296 66.9414 81.3066 67.5884 82.0346 68.4144C82.3956 68.8264 82.7126 69.2844 82.9486 69.7814C83.1876 70.2764 83.3266 70.8134 83.3496 71.3595C83.3486 71.6324 83.3396 71.9035 83.2716 72.1795L83.2496 72.2885L83.2206 72.3844L83.1626 72.5754C83.1076 72.7044 83.0666 72.8374 82.9986 72.9624C82.7546 73.4714 82.3786 73.9314 81.9326 74.3364C81.0296 75.1394 79.8436 75.7024 78.5986 76.0674C77.3546 76.4404 76.0376 76.6294 74.7356 76.6784C74.0846 76.7014 73.4356 76.6954 72.7946 76.6574C72.1516 76.6174 71.5266 76.5494 70.9006 76.4544C69.6726 76.2644 68.4896 75.9664 67.4116 75.5884C66.8726 75.3964 66.3586 75.1814 65.8726 74.9534C65.3856 74.7264 64.9296 74.4784 64.5096 74.2164C63.6656 73.6944 62.9646 73.1144 62.4316 72.5304C62.1646 72.2374 61.9486 71.9404 61.7616 71.6584C61.5826 71.3724 61.4396 71.0974 61.3376 70.8404C61.1286 70.3254 61.0606 69.8934 61.0446 69.6014C61.0276 69.4544 61.0386 69.3424 61.0366 69.2664C61.0376 69.1904 61.0376 69.1504 61.0376 69.1504C61.0376 69.1504 61.0336 69.1894 61.0266 69.2654C61.0226 69.3414 61.0016 69.4524 61.0056 69.6014C60.9986 69.8944 61.0216 70.3374 61.2026 70.8774C61.2886 71.1474 61.4166 71.4374 61.5806 71.7444C61.7516 72.0474 61.9616 72.3634 62.2196 72.6805C62.4796 72.9944 62.7816 73.3125 63.1246 73.6234C63.4686 73.9334 63.8596 74.2304 64.2826 74.5184C65.1266 75.0965 66.1266 75.6075 67.2286 76.0354C68.3336 76.4565 69.5356 76.8004 70.8166 77.0145C72.0816 77.2274 73.4246 77.3504 74.7796 77.3004C76.1356 77.2564 77.5126 77.0694 78.8326 76.6814C80.1486 76.2874 81.4216 75.6844 82.4236 74.7854C82.6726 74.5594 82.9016 74.3145 83.1046 74.0515C83.3006 73.7845 83.4826 73.5074 83.6136 73.2085C83.6896 73.0634 83.7356 72.9075 83.7946 72.7574L83.8616 72.5164L83.8936 72.3965L83.9136 72.2865C83.9816 71.9794 83.9916 71.6555 83.9836 71.3425C83.9446 70.7135 83.7756 70.1015 83.4906 69.5614C83.2106 69.0164 82.8486 68.5294 82.4486 68.0994C81.6456 67.2334 80.6986 66.5964 79.7876 66.0964L79.7876 66.0964Z" id="Shape" fill="#3F3F3F" stroke="none" />
        <path d="M70.3796 38.3254C70.3666 38.9424 70.4776 39.9964 71.4396 39.6114C72.5326 39.1734 71.1446 38.3164 70.6056 38.0204C70.9636 37.5984 71.7586 36.5024 70.6116 36.2334C69.5416 35.9824 69.9866 37.2024 70.2776 37.8314C69.5896 37.7774 68.2396 37.7744 68.8576 38.6894C69.4066 39.5024 70.0316 38.8384 70.3796 38.3254L70.3796 38.3254Z" id="Shape" fill="#3F3F3F" stroke="none" />
        <path d="M81.0386 32.2724C80.6036 31.9064 79.4766 31.0894 79.2106 32.2244C78.9636 33.2774 80.2036 32.8684 80.8456 32.5954C80.7926 33.2764 80.7966 34.6124 81.7306 34.0274C82.5676 33.5034 81.8816 32.8634 81.3526 32.5054C81.9876 32.5334 83.0766 32.4494 82.6766 31.4774C82.2216 30.3704 81.3416 31.7414 81.0386 32.2724L81.0386 32.2724Z" id="Shape" fill="#3F3F3F" stroke="none" />
        <path d="M88.0826 33.5974C88.0436 34.0144 88.0266 35.0344 88.8396 34.7054C89.5986 34.3984 88.8106 33.8364 88.3646 33.5724C88.8096 33.3064 89.6406 32.7194 88.8706 32.4164C88.1826 32.1454 88.0826 32.8364 88.0896 33.3094C87.8326 32.9184 87.3096 32.3044 86.8846 32.9684C86.4056 33.7184 87.6246 33.6484 88.0826 33.5974L88.0826 33.5974Z" id="Shape" fill="#3F3F3F" stroke="none" />
        <path d="M61.9866 35.0454C61.8436 35.0734 61.6936 35.1134 61.5366 35.1644C61.5226 35.1694 61.5106 35.1724 61.4966 35.1764C61.3726 35.2184 61.2666 35.2654 61.1686 35.3144C60.9406 35.4284 60.7736 35.5574 60.6586 35.6964C60.6136 35.7504 60.5786 35.8064 60.5476 35.8624C60.4986 35.9514 60.4646 36.0434 60.4436 36.1354C60.4296 36.1964 60.4196 36.2574 60.4146 36.3174C60.4106 36.3654 60.4086 36.4134 60.4106 36.4614C60.4156 36.6714 60.4606 36.8704 60.4986 37.0354C60.5496 37.2604 60.5926 37.4484 60.5646 37.6284C60.5366 37.8154 60.4336 37.9944 60.1866 38.2004C59.9936 38.3604 59.8446 38.5374 59.7236 38.7244C59.5826 38.9424 59.4846 39.1744 59.4286 39.4154C58.1686 39.7774 57.1636 40.6994 56.7276 41.9104C56.5986 42.2684 56.5166 42.6514 56.4966 43.0534C56.4846 43.2934 56.4946 43.5424 56.5266 43.7924L57.3136 60.1404L57.3136 60.1404L57.3516 60.9284L57.3516 60.9284L57.5106 64.2314L57.5106 64.2314L57.5186 64.3874L57.5186 64.3874L58.3246 81.1184L58.3246 81.1184L58.5196 85.1674L58.5196 85.1674L58.6796 88.4884L58.6796 88.4884L58.7156 89.2434L58.7156 89.2434L59.0176 95.5094C59.0196 95.5534 59.0276 95.5964 59.0376 95.6384C59.0846 95.8464 59.2136 96.0334 59.3986 96.1664C59.4436 96.1984 59.4906 96.2274 59.5416 96.2534C59.6426 96.3044 59.7536 96.3424 59.8716 96.3614L70.5076 98.1364L70.5076 98.1364L81.9226 100.041C81.9466 100.045 81.9716 100.048 81.9966 100.051C82.1146 100.063 82.2336 100.056 82.3486 100.032L89.4956 98.5104C89.8566 98.4334 90.1366 98.1894 90.2206 97.8774L103.68 47.9364C103.69 47.8984 103.698 47.8594 103.704 47.8214C103.727 47.6674 103.752 47.5164 103.777 47.3684C103.806 47.1954 103.836 47.0254 103.866 46.8584C103.889 46.7284 103.911 46.6034 103.932 46.4804C103.941 46.4304 103.949 46.3814 103.957 46.3324C104.002 46.0644 104.039 45.8114 104.061 45.5774C104.096 45.1964 104.089 44.8594 104.009 44.5624C103.956 44.3644 103.87 44.1834 103.741 44.0194C103.577 43.8094 103.357 43.6544 103.102 43.5634C103.127 43.4454 103.14 43.3304 103.142 43.2184C103.142 43.2104 103.14 43.2014 103.14 43.1934C103.141 42.7554 102.98 42.3604 102.754 41.9964C102.639 41.8104 102.508 41.6324 102.374 41.4614C102.307 41.3754 102.239 41.2904 102.172 41.2074C102.092 41.1074 102.01 41.0054 101.929 40.9014C101.817 40.7574 101.712 40.6034 101.601 40.4404C101.465 40.2414 101.324 40.0344 101.162 39.8344C101 39.6344 100.818 39.4414 100.601 39.2704C100.67 39.1484 100.732 39.0194 100.782 38.8784C100.933 38.4544 100.981 38.0264 100.932 37.6024C100.889 37.2334 100.765 36.8664 100.575 36.5044C100.516 36.3934 100.452 36.2824 100.38 36.1724C100.225 35.9364 100.046 35.7034 99.8276 35.4734C99.8686 35.4474 99.9106 35.4204 99.9516 35.3944C99.9826 35.3754 100.016 35.3544 100.051 35.3324C100.12 35.2884 100.196 35.2394 100.276 35.1854C100.434 35.0774 100.606 34.9484 100.763 34.8004C101.077 34.5034 101.334 34.1284 101.313 33.6814C101.313 33.6744 101.311 33.6674 101.31 33.6604C101.307 33.6114 101.302 33.5614 101.291 33.5104L101.291 33.5104C101.233 33.2194 101.059 32.8914 100.627 32.6464C100.296 32.4594 99.8136 32.3204 99.1136 32.2854L99.0416 32.2814C98.9426 32.2764 98.8386 32.2714 98.7296 32.2674C98.6956 32.2664 98.6596 32.2664 98.6246 32.2654C98.5676 32.2644 98.5126 32.2614 98.4536 32.2614C98.4196 32.2614 98.3836 32.2634 98.3486 32.2634C98.3246 32.2634 98.3016 32.2644 98.2776 32.2644C98.1606 32.2684 98.0416 32.2754 97.9196 32.2884C97.8976 32.2904 97.8746 32.2944 97.8516 32.2964C97.8146 32.3014 97.7766 32.3044 97.7396 32.3104C97.7406 32.3124 97.7416 32.3134 97.7416 32.3154C97.6476 32.3295 97.5536 32.3414 97.4576 32.3634C97.4136 32.3734 97.3406 32.3654 97.2566 32.3484C97.2096 32.3385 97.1576 32.3264 97.1056 32.3125C97.0966 32.3094 97.0876 32.3074 97.0786 32.3045C97.0256 32.2895 96.9716 32.2735 96.9196 32.2575C96.9136 32.2555 96.9086 32.2535 96.9026 32.2525C96.8496 32.2355 96.7986 32.2195 96.7546 32.2055C96.7516 32.2045 96.7486 32.2035 96.7456 32.2025C96.6826 32.1824 96.6186 32.1615 96.5546 32.1414C96.5326 32.1344 96.5096 32.1284 96.4876 32.1214C96.4386 32.1064 96.3886 32.0934 96.3386 32.0804C96.3126 32.0734 96.2856 32.0674 96.2596 32.0614C96.2116 32.0504 96.1636 32.0414 96.1146 32.0334C96.0886 32.0294 96.0636 32.0244 96.0376 32.0215C95.9806 32.0145 95.9246 32.0105 95.8686 32.0085C95.8546 32.0085 95.8406 32.0054 95.8266 32.0054C95.8236 32.0054 95.8206 32.0065 95.8176 32.0065C95.8066 32.0065 95.7966 32.0075 95.7856 32.0085C95.7386 32.0095 95.6926 32.0135 95.6466 32.0204C95.6286 32.0235 95.6106 32.0264 95.5926 32.0304C95.5886 32.0314 95.5846 32.0314 95.5806 32.0324C95.5806 32.0324 95.5806 32.0334 95.5806 32.0334C95.4706 32.0564 95.3626 32.0945 95.2586 32.1574C95.2536 32.1604 95.2496 32.1644 95.2446 32.1674C95.0786 32.0204 94.8996 31.8794 94.6996 31.7504C94.1766 31.4134 93.5236 31.1154 92.8676 30.9104C92.7586 30.8764 92.6486 30.8444 92.5396 30.8154C92.4306 30.7864 92.3226 30.7604 92.2146 30.7374C92.0496 30.7024 91.8966 30.6784 91.7476 30.6604C91.7046 30.6554 91.6636 30.6514 91.6226 30.6474C91.5116 30.6364 91.4056 30.6304 91.3046 30.6284C91.2826 30.6284 91.2566 30.6244 91.2346 30.6244C91.2226 30.6244 91.2136 30.6264 91.2016 30.6264C91.0786 30.6274 90.9616 30.6334 90.8516 30.6464C90.8366 30.6484 90.8236 30.6514 90.8086 30.6534C90.7136 30.6664 90.6246 30.6834 90.5396 30.7034C90.5086 30.7104 90.4786 30.7195 90.4486 30.7274C90.3806 30.7464 90.3156 30.7684 90.2536 30.7914C90.2276 30.8014 90.2016 30.8104 90.1766 30.8214C90.0946 30.8564 90.0166 30.8934 89.9466 30.9344C90.0226 30.6944 90.0456 30.4314 89.9816 30.1424C89.8126 29.3774 89.1766 28.8464 88.1916 28.6494L88.1356 28.6384C88.0586 28.6224 87.9756 28.6074 87.8906 28.5924C87.8666 28.5884 87.8436 28.5844 87.8186 28.5804C87.7276 28.5654 87.6336 28.5524 87.5356 28.5434C87.5326 28.5434 87.5296 28.5424 87.5266 28.5424C87.4516 28.5364 87.3756 28.5324 87.2976 28.5324C87.2746 28.5324 87.2516 28.5354 87.2286 28.5354C87.2036 28.5365 87.1776 28.5374 87.1526 28.5394C87.0476 28.5454 86.9406 28.5574 86.8316 28.5804L86.8306 28.5804C86.6136 28.1304 86.2626 27.7654 85.7966 27.5114C85.6416 27.4264 85.4736 27.3544 85.2936 27.2964L85.2406 27.2794C85.2386 27.2784 85.2366 27.2784 85.2346 27.2775C85.1786 27.2594 85.1196 27.2404 85.0596 27.2215C85.0416 27.2155 85.0236 27.2104 85.0046 27.2054C84.9386 27.1854 84.8706 27.1664 84.8006 27.1494C84.7976 27.1484 84.7946 27.1474 84.7916 27.1474C84.7216 27.1304 84.6486 27.1174 84.5746 27.1064C84.5556 27.1034 84.5366 27.1014 84.5176 27.0984C84.4466 27.0894 84.3736 27.0844 84.2996 27.0835C84.2946 27.0835 84.2896 27.0824 84.2836 27.0824C84.2826 27.0824 84.2806 27.0824 84.2796 27.0824C84.2386 27.0824 84.1976 27.0864 84.1556 27.0894C84.1356 27.0905 84.1156 27.0905 84.0946 27.0934C84.0316 27.1004 83.9686 27.1115 83.9046 27.1264C83.7866 27.1544 83.6676 27.1974 83.5506 27.2484C83.3406 27.3384 83.1346 27.4585 82.9416 27.6094C82.6376 27.4954 82.2486 27.4154 81.7506 27.3884C81.7406 27.3874 81.7316 27.3864 81.7206 27.3864L81.6486 27.3824C81.5506 27.3774 81.4456 27.3725 81.3376 27.3684C81.3026 27.3674 81.2666 27.3674 81.2296 27.3664C81.1746 27.3654 81.1206 27.3634 81.0636 27.3634C81.0276 27.3634 80.9896 27.3654 80.9536 27.3654C80.9296 27.3654 80.9066 27.3664 80.8816 27.3664C80.7646 27.3694 80.6456 27.3774 80.5236 27.3914C80.5006 27.3944 80.4766 27.3974 80.4536 27.4004C80.3246 27.4164 80.1946 27.4364 80.0626 27.4674C80.0626 27.4674 80.0616 27.4674 80.0616 27.4674C80.0466 27.4714 80.0286 27.4724 80.0076 27.4714C79.9726 27.4714 79.9286 27.4654 79.8806 27.4564C79.8726 27.4554 79.8656 27.4534 79.8576 27.4524C79.8096 27.4424 79.7586 27.4304 79.7056 27.4164C79.6966 27.4134 79.6866 27.4114 79.6776 27.4084C79.6246 27.3934 79.5706 27.3774 79.5186 27.3615C79.5106 27.3595 79.5036 27.3564 79.4966 27.3544C79.4446 27.3384 79.3936 27.3224 79.3506 27.3074C79.3486 27.3064 79.3466 27.3064 79.3446 27.3055C79.2796 27.2845 79.2136 27.2634 79.1476 27.2424C79.1256 27.2354 79.1036 27.2294 79.0816 27.2234C79.0316 27.2085 78.9806 27.1944 78.9296 27.1814C78.9026 27.1744 78.8766 27.1684 78.8496 27.1624C78.8016 27.1514 78.7526 27.1414 78.7036 27.1334C78.6776 27.1294 78.6516 27.1244 78.6256 27.1214C78.5686 27.1144 78.5126 27.1104 78.4566 27.1084C78.4426 27.1084 78.4276 27.1054 78.4136 27.1054C78.4106 27.1054 78.4066 27.1064 78.4036 27.1064C78.3916 27.1064 78.3806 27.1084 78.3686 27.1084C78.3226 27.1104 78.2776 27.1134 78.2326 27.1204C78.2146 27.1234 78.1966 27.1264 78.1776 27.1304C78.1376 27.1384 78.0976 27.1494 78.0586 27.1624C78.0416 27.1684 78.0246 27.1734 78.0076 27.1794C77.9536 27.2004 77.8996 27.2264 77.8476 27.2584C77.8476 27.2584 77.8476 27.2584 77.8476 27.2584C77.7586 27.3144 77.6796 27.3794 77.6086 27.4504C77.4656 27.5934 77.3566 27.7654 77.2726 27.9524C77.1476 28.2324 77.0816 28.5484 77.0526 28.8544C77.0426 28.9564 77.0376 29.0574 77.0346 29.1564C77.0326 29.2554 77.0326 29.3514 77.0366 29.4434C76.9046 29.4474 76.7696 29.4624 76.6316 29.4954C76.5466 29.5154 76.4596 29.5474 76.3736 29.5764C76.3306 29.5914 76.2876 29.6004 76.2446 29.6174C76.1416 29.2064 75.9416 28.8474 75.6616 28.5504C75.6516 28.5394 75.6426 28.5274 75.6326 28.5164C75.6246 28.5084 75.6156 28.5024 75.6076 28.4944C75.3446 28.2334 75.0126 28.0274 74.6266 27.8834L74.6266 27.8834C74.5826 27.8674 74.5416 27.8484 74.4966 27.8334L74.4446 27.8164C74.2456 27.7514 74.0206 27.6794 73.7786 27.6434C73.7596 27.6404 73.7406 27.6384 73.7206 27.6354C73.6496 27.6264 73.5776 27.6214 73.5036 27.6204C73.4986 27.6204 73.4936 27.6194 73.4876 27.6194C73.4866 27.6194 73.4846 27.6194 73.4836 27.6194C73.4426 27.6194 73.4016 27.6234 73.3606 27.6264C73.3406 27.6274 73.3206 27.6274 73.2996 27.6294C73.2376 27.6364 73.1746 27.6474 73.1116 27.6624C73.0556 27.6754 72.9996 27.6984 72.9436 27.7174C72.7816 27.7714 72.6186 27.8394 72.4636 27.9334C72.3586 27.9964 72.2566 28.0684 72.1576 28.1474C72.0586 28.2264 71.9646 28.3124 71.8756 28.4054C71.8326 28.3644 71.7816 28.3294 71.7356 28.2904C71.3696 27.9864 70.8906 27.7624 70.3006 27.6444L70.2546 27.6354L70.2316 27.6304C70.1686 27.6174 70.1026 27.6044 70.0346 27.5914C70.0136 27.5874 69.9926 27.5834 69.9706 27.5794C69.9176 27.5694 69.8626 27.5604 69.8076 27.5524C69.7836 27.5484 69.7596 27.5444 69.7346 27.5414C69.6626 27.5314 69.5896 27.5224 69.5146 27.5154C69.5096 27.5144 69.5046 27.5144 69.4996 27.5134C69.4216 27.5064 69.3416 27.5034 69.2616 27.5034C69.2526 27.5034 69.2426 27.5024 69.2336 27.5024C69.2196 27.5024 69.2046 27.5044 69.1896 27.5044C69.1276 27.5054 69.0656 27.5084 69.0026 27.5144C68.9766 27.5164 68.9516 27.5184 68.9256 27.5214C68.8406 27.5314 68.7546 27.5444 68.6676 27.5654C68.6666 27.5654 68.6666 27.5654 68.6666 27.5654C68.0826 27.7034 67.4716 28.0364 66.9896 28.4784C66.8866 28.5734 66.7956 28.6724 66.7106 28.7744C66.7056 28.7804 66.6986 28.7864 66.6936 28.7924C66.6366 28.7614 66.5786 28.7354 66.5196 28.7114C66.5026 28.7044 66.4846 28.6984 66.4676 28.6924C66.4236 28.6764 66.3796 28.6634 66.3346 28.6525C66.3156 28.6474 66.2966 28.6434 66.2776 28.6395C66.2236 28.6295 66.1686 28.6225 66.1136 28.6205C66.1056 28.6205 66.0976 28.6185 66.0896 28.6185C66.0876 28.6185 66.0856 28.6174 66.0846 28.6174C66.0176 28.6174 65.9496 28.6245 65.8806 28.6395C64.6906 28.9005 64.3076 30.6915 64.2706 31.1535C64.2676 31.1855 64.2716 31.2145 64.2716 31.2445C64.2726 31.3115 64.2786 31.3755 64.2916 31.4365C64.2966 31.4595 64.2986 31.4825 64.3046 31.5045C63.8316 31.6465 63.4226 31.8585 63.0766 32.1345C62.5346 32.5665 62.1536 33.1535 61.9566 33.8815C61.8746 34.1835 61.8686 34.4615 61.9096 34.7225L61.9096 34.7225C61.9306 34.8334 61.9536 34.9414 61.9866 35.0454L61.9866 35.0454ZM63.2556 37.8254C63.2326 38.3784 63.2746 39.4614 64.0206 38.9874C64.6886 38.5634 64.1106 38.0434 63.6676 37.7524C64.1846 37.7754 65.0666 37.7084 64.7206 36.9284C64.7216 36.9284 64.7226 36.9284 64.7226 36.9284C65.5966 36.8794 66.2856 37.0174 66.7816 37.3384C66.8526 37.3844 66.9196 37.4334 66.9826 37.4864C66.8976 38.1444 67.0486 38.8004 67.4296 39.4374C67.3746 39.5844 67.3036 39.7404 67.2186 39.9064C67.1176 39.9044 67.0176 39.9054 66.9176 39.9104C66.9536 39.8454 66.9866 39.7784 67.0136 39.7104C67.1136 39.4644 67.1376 39.2044 67.1136 38.9834C67.0876 38.7604 67.0176 38.5734 66.9386 38.4254C66.8606 38.2764 66.7706 38.1644 66.6946 38.0774C66.6156 37.9924 66.5476 37.9324 66.5006 37.8934C66.4536 37.8544 66.4266 37.8354 66.4266 37.8354C66.4266 37.8354 66.4296 37.8674 66.4356 37.9264C66.4446 37.9834 66.4476 38.0704 66.4576 38.1714C66.4606 38.2744 66.4686 38.3954 66.4546 38.5244C66.4436 38.6524 66.4196 38.7874 66.3696 38.9104C66.3206 39.0334 66.2536 39.1454 66.1586 39.2424C66.0686 39.3414 65.9516 39.4294 65.8136 39.5114C65.6776 39.5954 65.5136 39.6644 65.3406 39.7334C65.1656 39.7974 64.9756 39.8574 64.7786 39.9044C64.6826 39.9304 64.5766 39.9544 64.4846 39.9724L64.3246 40.0054L64.2816 40.0134L64.2706 40.0154L64.2676 40.0164C64.2646 40.0164 64.2826 40.0144 64.2746 40.0154L64.2706 40.0164L64.2546 40.0194L64.1896 40.0294C64.0166 40.0574 63.8496 40.0654 63.6856 40.0554C63.5216 40.0424 63.3596 40.0134 63.2016 39.9654C63.0526 39.9184 62.9076 39.8564 62.7716 39.7884C62.7476 39.7754 62.7236 39.7624 62.6996 39.7504C62.4376 39.6084 62.2136 39.4474 62.0556 39.3264C61.9726 39.2604 61.9016 39.2084 61.8576 39.1684C61.8116 39.1294 61.7876 39.1084 61.7876 39.1084C61.7876 39.1084 61.7876 39.1404 61.7956 39.1994C61.8036 39.2504 61.8146 39.3254 61.8376 39.4144C61.5926 39.3464 61.3396 39.2974 61.0796 39.2714C60.9596 39.2594 60.8406 39.2534 60.7226 39.2504C60.7786 39.1774 60.8456 39.1064 60.9246 39.0414C61.8976 38.2344 61.6996 37.3634 61.5816 36.8424C61.4726 36.3614 61.4726 36.3614 61.8996 36.2164C62.8056 35.9094 63.1936 36.1854 63.6426 36.5034C63.7566 36.5844 63.8756 36.6684 64.0036 36.7404C63.7516 36.9584 63.5216 37.3474 63.4046 37.5644C63.0396 37.2674 62.0966 36.6044 61.9116 37.5234C61.7386 38.3774 62.7396 38.0464 63.2556 37.8254L63.2556 37.8254ZM82.3856 30.6724C82.6196 30.7104 82.9536 30.7644 83.3546 30.8294C83.5516 30.8624 83.7616 30.8994 83.9786 30.9404C84.1946 30.9844 84.4176 31.0334 84.6316 31.0974C84.8426 31.1614 85.0516 31.2424 85.1806 31.3364C85.2466 31.3804 85.2856 31.4254 85.2986 31.4524C85.3086 31.4814 85.3136 31.4874 85.3136 31.5264C85.3136 31.5264 85.3136 31.5314 85.3136 31.5344L85.3106 31.5814C85.3086 31.6104 85.3076 31.6574 85.3036 31.6704C85.2986 31.7084 85.2956 31.7514 85.2866 31.7964C85.2716 31.8814 85.2466 31.9484 85.2206 32.0064C85.1946 32.0644 85.1586 32.1154 85.1036 32.1714C85.0506 32.2284 84.9766 32.2874 84.8906 32.3444C84.7196 32.4624 84.5116 32.5774 84.3126 32.6924C84.1136 32.8074 83.9206 32.9244 83.7476 33.0404C83.3996 33.2714 83.1326 33.5004 82.9586 33.6724C82.8706 33.7574 82.8066 33.8314 82.7626 33.8804C82.7186 33.9294 82.6976 33.9574 82.6976 33.9574C82.6976 33.9574 82.7336 33.9524 82.7976 33.9384C82.8616 33.9244 82.9546 33.9044 83.0746 33.8794C83.3046 33.8254 83.6326 33.7494 84.0266 33.6564C84.1526 33.6254 84.2876 33.5914 84.4266 33.5564C84.3976 33.6664 84.3726 33.7764 84.3566 33.8874C83.9086 33.9224 83.4866 34.0214 83.0926 34.1144C82.9886 34.1394 82.8846 34.1634 82.7826 34.1864C82.2146 34.3134 81.5926 34.4924 81.0556 34.8004C80.9936 34.7394 80.9316 34.6794 80.8706 34.6204C80.7776 34.5314 80.6836 34.4404 80.5906 34.3474C80.4606 34.2174 80.3366 34.0814 80.2056 33.9364C79.8186 33.5094 79.3896 33.0384 78.7356 32.7084C78.8516 32.2034 79.1586 31.7264 79.6566 31.2844C80.2886 30.7224 81.1036 30.2854 81.8346 30.1154C82.1606 30.0394 82.4966 30.0374 82.8336 30.0714C83.0606 30.0944 83.2886 30.1334 83.5146 30.1774C83.4606 30.1854 83.4036 30.1924 83.3526 30.2014C82.5206 30.3474 82.0096 30.6024 82.0096 30.6024C82.0096 30.6024 82.1466 30.6304 82.3856 30.6724L82.3856 30.6724ZM84.4736 72.1354C83.9386 75.7454 78.4576 78.0074 72.0936 77.3644C71.9066 77.3454 71.7186 77.3244 71.5296 77.3004C64.9216 76.4614 59.8426 72.7904 60.1956 69.0454C60.5436 65.3474 66.0416 62.9494 72.5996 63.6114C72.7926 63.6314 72.9856 63.6534 73.1796 63.6774C79.9836 64.5464 85.0336 68.3584 84.4736 72.1354L84.4736 72.1354ZM64.3156 95.9534L68.0936 96.7344L68.0886 96.8744L64.3146 96.2444L64.3156 95.9534L64.3156 95.9534ZM64.3176 95.5654L64.4226 76.3984C64.5476 76.4674 64.6756 76.5334 64.8046 76.5994C64.7946 77.7794 64.7926 78.9374 64.7846 80.0594C64.7736 81.4964 64.7756 82.8764 64.7756 84.1774C64.7726 85.4715 64.7796 86.6875 64.7866 87.8054C64.7976 90.0224 64.8226 91.8544 64.8446 93.1284C64.8706 94.3944 64.8866 95.1154 64.8866 95.1154C64.8866 95.1154 64.9226 94.3974 64.9856 93.1364C65.0436 91.8674 65.1236 90.0414 65.1986 87.8284C65.2376 86.7134 65.2806 85.4994 65.3156 84.2074C65.3536 82.9084 65.3966 81.5294 65.4276 80.0944C65.4496 79.0684 65.4786 78.0124 65.5026 76.9364C65.6196 76.9894 65.7346 77.0444 65.8536 77.0944C66.7466 77.4784 67.6996 77.8114 68.6876 78.0684C68.7246 78.0784 68.7626 78.0874 68.7996 78.0974L68.1236 95.9754L64.3176 95.5654L64.3176 95.5654ZM68.9326 96.9084L71.6356 97.4674L68.9286 97.0154L68.9326 96.9084L68.9326 96.9084ZM68.9656 96.0644L69.6726 78.3054C69.7796 78.3284 69.8876 78.3514 69.9956 78.3734C69.9676 79.1184 69.9416 79.8524 69.9136 80.5704C69.8566 82.0024 69.8146 83.3794 69.7726 84.6764C69.7286 85.9664 69.6956 87.1794 69.6676 88.2934C69.6066 90.5044 69.5736 92.3314 69.5546 93.6014C69.5406 94.8644 69.5326 95.5824 69.5326 95.5824C69.5326 95.5824 69.5916 94.8674 69.6956 93.6114C69.7946 92.3474 69.9326 90.5274 70.0796 88.3224C70.1556 87.2114 70.2366 86.0024 70.3126 84.7144C70.3926 83.4194 70.4796 82.0464 70.5566 80.6154C70.5936 79.9224 70.6346 79.2164 70.6756 78.5004C70.7706 78.5164 70.8656 78.5324 70.9606 78.5484C71.2176 78.5904 71.4616 78.6224 71.7126 78.6584L72.1076 78.7024C72.2366 78.7154 72.3646 78.7334 72.4936 78.7424C72.7516 78.7624 73.0086 78.7904 73.2666 78.8014C73.5246 78.8174 73.7816 78.8314 74.0376 78.8344C74.0416 78.8344 74.0456 78.8344 74.0496 78.8344L72.7806 96.4734L68.9656 96.0644L68.9656 96.0644ZM68.1386 37.3904C68.3276 36.7294 68.9376 36.3394 70.2456 36.0474C70.3516 36.0234 70.4586 35.9984 70.5656 35.9724C71.0966 35.8464 71.6046 35.7254 72.1246 35.7784C72.2676 35.7924 72.4106 35.8204 72.5556 35.8644C72.6536 35.8934 72.7426 35.9314 72.8276 35.9734C73.0856 36.3514 73.4686 36.7544 74.0226 37.1754C74.1316 37.3244 74.2436 37.4764 74.3656 37.6244C74.4556 37.7334 74.5466 37.8404 74.6356 37.9464C75.1576 38.5614 75.4766 38.9624 75.4536 39.3874C75.4326 39.3164 75.4086 39.2494 75.3826 39.1874C75.3196 39.0284 75.2426 38.8924 75.1616 38.7644C75.0006 38.5104 74.8206 38.3024 74.6426 38.1194C74.4636 37.9364 74.2836 37.7804 74.1116 37.6444C73.4226 37.1024 72.8566 36.9014 72.8566 36.9014C72.8566 36.9014 72.9256 37.0324 73.0486 37.2484C73.1716 37.4574 73.3466 37.7554 73.5566 38.1134C73.6586 38.2874 73.7676 38.4734 73.8726 38.6674C73.9776 38.8604 74.0806 39.0644 74.1606 39.2624C74.1966 39.3614 74.2356 39.4594 74.2556 39.5484C74.2806 39.6394 74.2846 39.7184 74.2856 39.7764C74.2886 39.8394 74.2636 39.8544 74.2606 39.8684C74.2596 39.8754 74.2496 39.8794 74.2446 39.8884C74.2406 39.8934 74.2296 39.8964 74.2246 39.9024C74.2216 39.9054 74.2186 39.9084 74.2156 39.9114L74.1966 39.9204C74.1856 39.9384 74.0226 40.0144 73.9116 40.0744C73.7996 40.1224 73.7116 40.1724 73.6016 40.2184C73.3836 40.3094 73.1676 40.3944 72.9536 40.4594C72.7396 40.5234 72.5296 40.5794 72.3286 40.6094C72.1256 40.6494 71.9356 40.6574 71.7526 40.6644C71.5756 40.6604 71.4046 40.6504 71.2586 40.6174C71.1836 40.6034 71.1126 40.5874 71.0496 40.5644C70.9846 40.5444 70.9216 40.5254 70.8706 40.5004C70.8156 40.4764 70.7666 40.4544 70.7246 40.4354C70.6836 40.4114 70.6486 40.3904 70.6206 40.3744C70.5606 40.3394 70.5286 40.3214 70.5286 40.3214C70.5286 40.3214 70.5386 40.3554 70.5646 40.4184C70.5786 40.4504 70.5946 40.4904 70.6146 40.5374C70.6376 40.5824 70.6696 40.6304 70.7066 40.6874C70.7406 40.7474 70.7916 40.7994 70.8466 40.8614C70.8996 40.9274 70.9686 40.9824 71.0436 41.0434C71.0766 41.0714 71.1136 41.0974 71.1506 41.1234C71.1076 41.1124 71.0636 41.1024 71.0226 41.0904C70.4086 40.9054 69.8986 40.4694 69.4046 40.0474L69.3156 39.9714C68.2936 39.1004 67.8976 38.2324 68.1386 37.3904L68.1386 37.3904ZM73.3976 34.4394C73.4616 34.7954 73.9776 34.9044 74.3636 34.9354C74.1316 35.0544 73.8286 35.2414 73.6886 35.4654C73.4586 35.1384 73.3296 34.7884 73.3976 34.4394L73.3976 34.4394ZM77.3746 41.5794C77.4216 41.6034 77.4686 41.6284 77.5156 41.6544C77.5806 41.6894 77.6446 41.7304 77.7096 41.7704C77.7546 41.7984 77.8026 41.8284 77.8526 41.8574C77.6256 41.9954 77.4116 42.1514 77.2146 42.3274C77.1636 42.2604 77.1096 42.1944 77.0546 42.1294C77.1586 41.9854 77.2326 41.7774 77.2826 41.5314C77.3146 41.5474 77.3446 41.5634 77.3746 41.5794L77.3746 41.5794ZM77.5356 39.3704C77.7096 39.1734 77.9406 39.0224 78.1376 38.9774C78.1796 38.9684 78.2276 38.9674 78.2796 38.9724C78.4036 38.9854 78.5496 39.0324 78.6936 39.0784L78.7376 39.0924C79.1616 39.2284 79.4116 39.4704 79.5006 39.8344C79.5686 40.1114 79.4796 40.3574 79.1846 40.7104C79.1566 40.7444 79.1276 40.7794 79.0996 40.8144C78.9536 40.9944 78.8276 41.1484 78.6856 41.1814C78.5816 41.2054 78.4406 41.1244 78.2216 40.9874C78.1406 40.9364 78.0596 40.8864 77.9776 40.8414C77.9246 40.8134 77.8726 40.7854 77.8206 40.7584C77.4906 40.5854 77.3706 40.5094 77.3256 40.3284C77.2326 39.9574 77.3036 39.6354 77.5356 39.3704L77.5356 39.3704ZM75.1716 63.2324C74.5516 63.0994 73.9176 62.9904 73.2736 62.9084C73.0726 62.8824 72.8696 62.8594 72.6686 62.8394C72.2476 62.7964 71.8286 62.7664 71.4126 62.7474C71.4246 62.4514 71.4356 62.1554 71.4476 61.8624C71.5126 60.2974 71.5616 58.7744 71.6126 57.3204C71.6656 55.8584 71.7056 54.4664 71.7426 53.1734C71.8196 50.5684 71.8666 48.3734 71.8966 46.8254C71.9206 45.2664 71.9336 44.3714 71.9336 44.3714C71.9336 44.3714 71.8636 45.2624 71.7416 46.8144C71.6256 48.3564 71.4676 50.5434 71.3006 53.1434C71.2166 54.4324 71.1266 55.8214 71.0426 57.2814C70.9566 58.7324 70.8626 60.2534 70.7816 61.8174C70.7656 62.1194 70.7486 62.4244 70.7326 62.7284C70.5856 62.7264 70.4396 62.7264 70.2936 62.7274L71.0816 42.9284C71.7216 42.0614 72.8116 41.5434 74.0026 41.6634C75.1526 41.7794 76.1066 42.4614 76.6016 43.3904L75.1716 63.2324L75.1716 63.2324ZM70.1346 42.7554L69.3786 62.7544C68.0826 62.8194 66.8426 63.0034 65.6996 63.3044C65.7036 62.6234 65.7076 61.9464 65.7136 61.2794C65.7286 59.7094 65.7286 58.1814 65.7316 56.7234C65.7376 55.2564 65.7326 53.8604 65.7276 52.5644C65.7206 49.9514 65.6976 47.7504 65.6766 46.1984C65.6506 44.6354 65.6346 43.7384 65.6346 43.7384C65.6346 43.7384 65.5936 44.6334 65.5216 46.1914C65.4556 47.7394 65.3676 49.9344 65.2846 52.5434C65.2426 53.8374 65.1966 55.2304 65.1596 56.6964C65.1206 58.1524 65.0756 59.6784 65.0446 61.2474C65.0296 61.9934 65.0116 62.7494 64.9946 63.5104C64.8236 63.5644 64.6556 63.6214 64.4896 63.6814L64.6066 42.2754C65.2346 41.4084 66.3146 40.8904 67.5046 41.0104C68.6636 41.1244 69.6306 41.8154 70.1346 42.7554L70.1346 42.7554ZM77.1386 63.7534C77.1686 63.3164 77.1986 62.8824 77.2286 62.4514C77.3406 60.8914 77.4336 59.3714 77.5276 57.9224C77.6236 56.4644 77.7046 55.0754 77.7796 53.7874C77.9336 51.1894 78.0456 49.0004 78.1206 47.4564C78.1906 45.9014 78.2306 45.0084 78.2306 45.0084C78.2306 45.0084 78.1336 45.8964 77.9656 47.4434C77.8046 48.9804 77.5806 51.1604 77.3376 53.7514C77.2156 55.0364 77.0846 56.4204 76.9566 57.8764C76.8276 59.3234 76.6886 60.8384 76.5616 62.3974C76.5296 62.7804 76.4976 63.1654 76.4646 63.5534C76.3346 63.5174 76.2026 63.4834 76.0706 63.4484L77.5376 43.6014C78.1876 42.7244 79.2936 42.1984 80.4926 42.3204C81.6676 42.4394 82.6296 43.1484 83.1026 44.1074L80.7916 65.3514C79.7006 64.7114 78.4676 64.1734 77.1386 63.7534L77.1386 63.7534ZM80.0556 38.6314C80.0636 38.6294 80.0706 38.6274 80.0786 38.6254C80.0806 38.6294 80.0826 38.6334 80.0846 38.6364C80.0746 38.6354 80.0646 38.6334 80.0556 38.6314L80.0556 38.6314ZM80.9306 40.2674C80.9286 40.2694 80.9276 40.2724 80.9266 40.2754L80.9076 40.3194C80.9046 40.3254 80.8946 40.3394 80.8896 40.3484C80.8756 40.3684 80.8566 40.3874 80.8356 40.4074C80.7896 40.4454 80.7276 40.4924 80.6396 40.5314C80.5586 40.5694 80.4636 40.6014 80.3596 40.6304C80.4786 40.3434 80.5306 40.0104 80.4366 39.6234C80.4286 39.5914 80.4166 39.5614 80.4066 39.5294C80.4156 39.5364 80.4256 39.5414 80.4356 39.5484C80.6146 39.6754 80.7876 39.8224 80.8826 39.9634C80.9316 40.0324 80.9506 40.0954 80.9546 40.1394C80.9606 40.1814 80.9506 40.2184 80.9306 40.2674L80.9306 40.2674ZM79.1976 34.3344C78.8246 34.1274 78.4616 34.0094 78.1406 33.9284C77.7326 33.8284 77.3866 33.7954 77.1446 33.7864C76.9016 33.7784 76.7616 33.7944 76.7616 33.7944C76.7616 33.7944 76.8766 33.8704 77.0786 34.0024C77.2776 34.1314 77.5606 34.3094 77.8806 34.5234C78.0406 34.6304 78.2096 34.7464 78.3776 34.8734C78.5456 34.9994 78.7136 35.1364 78.8606 35.2814C79.0086 35.4254 79.1316 35.5824 79.2046 35.7244C79.2396 35.7964 79.2596 35.8634 79.2726 35.9264C79.2746 35.9424 79.2786 35.9584 79.2786 35.9734L79.2796 35.9854L79.2806 35.9904L79.2826 36.0334L79.2856 36.1304L79.2846 36.2034C79.2876 36.3984 79.2566 36.5974 79.2056 36.7444C79.1516 36.8954 79.0776 36.9984 78.9706 37.0894C78.8596 37.1744 78.7036 37.2394 78.5276 37.2744C78.3516 37.3074 78.1626 37.3164 77.9826 37.3114C77.6206 37.3004 77.2946 37.2464 77.0646 37.2074C76.9476 37.1874 76.8556 37.1714 76.7936 37.1604C76.7296 37.1504 76.6946 37.1444 76.6946 37.1444C76.6946 37.1444 76.7186 37.1694 76.7636 37.2154C76.8096 37.2604 76.8776 37.3284 76.9706 37.4044C77.0896 37.5024 77.2496 37.6234 77.4556 37.7394C77.1606 37.6954 76.8756 37.6344 76.6146 37.5564C75.9456 37.3534 75.3906 36.9494 74.8536 36.5584L74.7596 36.4894C74.6426 36.4044 74.5246 36.3124 74.4076 36.2154C74.6596 35.9904 74.6776 35.2974 74.6706 34.9704C75.1136 35.0534 76.2066 35.1754 75.9336 34.2964C75.6776 33.4744 74.9966 34.2394 74.6706 34.6754C74.5236 34.3774 74.2616 33.9194 73.9886 33.7814C74.3226 33.6274 74.8026 33.5144 75.4516 33.4354C75.5576 33.4224 75.6636 33.4084 75.7706 33.3944C76.4676 33.3024 77.1266 33.2144 77.8636 33.4394C78.4566 33.6204 78.8306 33.9464 79.1976 34.3344L79.1976 34.3344ZM72.6286 29.6254C72.5776 29.6294 72.5236 29.6334 72.4706 29.6374C72.5196 29.5234 72.5846 29.4144 72.6716 29.3134C72.8836 29.0644 73.1666 28.8744 73.4096 28.8174C73.4616 28.8054 73.5206 28.8044 73.5846 28.8104C73.7376 28.8254 73.9186 28.8854 74.0956 28.9424L74.1496 28.9604C74.6746 29.1304 74.9846 29.4354 75.0996 29.8934C75.1216 29.9814 75.1306 30.0674 75.1276 30.1534C74.4536 29.4824 73.5626 29.5514 72.6286 29.6254L72.6286 29.6254ZM69.3526 29.4674C69.0806 29.5284 68.8556 29.6244 68.6626 29.7414C68.4276 29.6684 68.1766 29.6064 67.9076 29.5754C67.8596 29.5694 67.7866 29.5334 67.7036 29.4834C67.7396 29.4444 67.7766 29.4064 67.8186 29.3674C68.0776 29.1304 68.5186 28.8384 68.9766 28.7304C69.1346 28.6934 69.3046 28.6924 69.4806 28.7104C69.6606 28.7284 69.8456 28.7664 70.0276 28.8024L70.0976 28.8164C70.6536 28.9274 71.0206 29.1364 71.1976 29.4344C70.7866 29.3294 70.2266 29.2694 69.3526 29.4674L69.3526 29.4674ZM66.1316 29.8204C66.2396 29.8704 66.4446 30.0244 66.5846 30.1304C66.9266 30.3884 67.3126 30.6774 67.7496 30.7474C67.7126 30.8094 67.6766 30.8714 67.6406 30.9314C67.5756 31.0424 67.5096 31.1564 67.4366 31.2704C67.3766 31.3644 67.3216 31.4594 67.2696 31.5544C67.1896 31.5214 67.1086 31.4904 67.0246 31.4644C66.5826 31.3304 66.0826 31.2754 65.5716 31.2964C65.5296 31.2674 65.4946 31.2414 65.4696 31.2174C65.5336 30.7274 65.8456 29.9554 66.1316 29.8204L66.1316 29.8204ZM68.1976 34.4654C67.7446 33.6624 67.8096 32.7954 68.3916 31.8884C68.4726 31.7624 68.5466 31.6374 68.6186 31.5144C68.9396 30.9674 69.1306 30.6754 69.6286 30.5644C70.5116 30.3654 70.8876 30.4964 71.2516 30.6234C71.2816 30.6334 71.3126 30.6444 71.3446 30.6554C71.2186 30.7184 71.1106 30.7814 71.0246 30.8374C70.8486 30.9544 70.7606 31.0414 70.7606 31.0414C70.7606 31.0414 70.8796 31.0534 71.0896 31.0754C71.2946 31.0964 71.5796 31.1224 71.9136 31.1484C72.0796 31.1604 72.2616 31.1764 72.4466 31.1854C72.6156 31.1994 72.8056 31.2154 72.9876 31.2464C73.1706 31.2734 73.3546 31.3144 73.5206 31.3664C73.6856 31.4214 73.8346 31.4864 73.9246 31.5584C73.9706 31.5924 74.0026 31.6244 74.0236 31.6554C74.0466 31.6854 74.0646 31.7154 74.0776 31.7584C74.0846 31.7794 74.0886 31.8034 74.0926 31.8314L74.0956 31.8524L74.0966 31.8574C74.0986 31.8264 74.0976 31.8504 74.0976 31.8434L74.0976 31.8464L74.0976 31.8514L74.0976 31.8714L74.0986 31.9524C74.0966 31.9964 74.0996 32.0154 74.0956 32.0544C74.0946 32.0914 74.0916 32.1264 74.0866 32.1594C74.0676 32.2934 74.0336 32.4024 73.9596 32.5144C73.8986 32.6094 73.8076 32.7034 73.7076 32.7964C73.1076 33.0344 72.6276 33.4134 72.4406 34.0494L72.4406 34.0494C72.3846 34.2404 72.3516 34.4584 72.3636 34.6994C72.0106 34.6484 71.6736 34.6544 71.3526 34.6914C71.3736 34.6794 71.3956 34.6684 71.4176 34.6544C72.2386 34.1334 71.5436 33.4964 71.0096 33.1394C71.6416 33.1674 72.7226 33.0834 72.3046 32.1164C71.8286 31.0154 70.9816 32.3804 70.6916 32.9084C70.2516 32.5434 69.1146 31.7304 68.8726 32.8604C68.6486 33.9084 69.8736 33.5014 70.5066 33.2294C70.4786 33.7334 70.4886 34.5974 70.8726 34.7684C70.6676 34.8084 70.4686 34.8554 70.2766 34.9014C70.1736 34.9254 70.0716 34.9504 69.9696 34.9734C69.8396 35.0024 69.7056 35.0354 69.5716 35.0714C68.8646 34.9884 68.4276 34.8744 68.1976 34.4654L68.1976 34.4654ZM67.6596 35.5164C67.7676 35.6104 67.8816 35.6914 68.0026 35.7594C67.7536 35.9394 67.5336 36.1564 67.3606 36.4214C67.2776 36.3684 67.1896 36.3194 67.0996 36.2734C67.1696 36.2124 67.2306 36.1464 67.2946 36.0804C67.3686 35.9884 67.4486 35.8934 67.5056 35.7964L67.5946 35.6484L67.6596 35.5164L67.6596 35.5164ZM57.6236 43.7544C57.5966 43.5614 57.5856 43.3634 57.5966 43.1634C57.6896 41.4334 59.2196 40.1694 61.0126 40.3504C62.1696 40.4674 63.1436 41.1584 63.6596 42.0984L63.5826 64.0434C61.7676 64.8604 60.4896 65.9874 59.8436 67.3064C59.8186 66.6844 59.7936 66.0634 59.7686 65.4434C59.7066 63.8204 59.6246 62.2114 59.5566 60.6434C59.4886 59.0654 59.4076 57.5304 59.3336 56.0644C59.2616 54.5894 59.1836 53.1874 59.1096 51.8854C58.9646 49.2594 58.8246 47.0494 58.7216 45.4904C58.6126 43.9214 58.5496 43.0194 58.5496 43.0194C58.5496 43.0194 58.5556 43.9204 58.5666 45.4884C58.5826 47.0464 58.6116 49.2554 58.6666 51.8794C58.6926 53.1804 58.7216 54.5824 58.7616 56.0564C58.7996 57.5214 58.8356 59.0564 58.8876 60.6334C58.9386 62.2004 58.9806 63.8084 59.0416 65.4314C59.1006 67.0434 59.1596 68.6694 59.2176 70.2834C59.2846 71.8864 59.3506 73.4794 59.4156 75.0364C59.4756 76.5824 59.5566 78.0944 59.6226 79.5474C59.6876 80.9914 59.7626 82.3784 59.8316 83.6864C59.8976 84.9864 59.9686 86.2084 60.0346 87.3314C60.1626 89.5594 60.2846 91.3994 60.3736 92.6774C60.4666 93.9494 60.5206 94.6724 60.5206 94.6724C60.5206 94.6724 60.5186 93.9504 60.5146 92.6804C60.5056 91.4034 60.4886 89.5654 60.4456 87.3394C60.4256 86.2174 60.4036 84.9964 60.3706 83.6964C60.3396 82.3894 60.3096 81.0034 60.2636 79.5594C60.2186 78.1064 60.1836 76.5954 60.1256 75.0494C60.0936 74.1154 60.0606 73.1674 60.0266 72.2124C60.0776 72.3244 60.1326 72.4384 60.1956 72.5544C60.2616 72.6924 60.3526 72.8224 60.4346 72.9634C60.5216 73.1014 60.6216 73.2374 60.7206 73.3804C60.9316 73.6554 61.1676 73.9384 61.4386 74.2114C61.7036 74.4904 62.0086 74.7524 62.3286 75.0204C62.6556 75.2784 63.0026 75.5364 63.3766 75.7784C63.4286 75.8124 63.4846 75.8444 63.5376 75.8784L63.4686 95.4734L60.4036 95.1444L63.4676 95.7784L63.4666 96.1034L59.9976 95.5244L57.6236 43.7544L57.6236 43.7544ZM73.6236 96.5654L74.9336 78.8394C75.0536 78.8384 75.1736 78.8344 75.2936 78.8314C75.2416 79.5994 75.1926 80.3544 75.1416 81.0954C75.0426 82.5234 74.9596 83.8964 74.8796 85.1904C74.7976 86.4764 74.7296 87.6864 74.6676 88.7974C74.5416 91.0024 74.4546 92.8244 74.3976 94.0914C74.3466 95.3514 74.3166 96.0674 74.3166 96.0674C74.3166 96.0674 74.3966 95.3554 74.5376 94.1024C74.6746 92.8424 74.8666 91.0294 75.0776 88.8314C75.1856 87.7244 75.3026 86.5184 75.4176 85.2354C75.5356 83.9444 75.6636 82.5754 75.7826 81.1494C75.8466 80.3814 75.9156 79.5974 75.9846 78.8004C76.5956 78.7614 77.1986 78.6984 77.7816 78.6064C78.3336 78.5224 78.8676 78.4094 79.3826 78.2774L77.3486 96.9674L73.6236 96.5654L73.6236 96.5654ZM80.3036 78.0084C80.3656 77.9884 80.4296 77.9704 80.4896 77.9494C80.5626 77.9254 80.6336 77.8994 80.7046 77.8734C80.5676 79.1494 80.4436 80.4014 80.3166 81.6104C80.1666 83.0334 80.0356 84.4014 79.9096 85.6914C79.7816 86.9734 79.6706 88.1794 79.5696 89.2864C79.3656 91.4844 79.2146 93.3004 79.1126 94.5634C79.0166 95.8194 78.9616 96.5344 78.9616 96.5344C78.9616 96.5344 79.0666 95.8254 79.2526 94.5784C79.4346 93.3234 79.6906 91.5184 79.9796 89.3294C80.1276 88.2264 80.2866 87.0254 80.4476 85.7474C80.6116 84.4614 80.7876 83.0984 80.9576 81.6774C81.1156 80.3544 81.2896 78.9834 81.4516 77.5794C81.5296 77.5454 81.6086 77.5114 81.6846 77.4774C82.0586 77.2984 82.4166 77.1204 82.7396 76.9164C83.0676 76.7204 83.3636 76.5054 83.6336 76.2914C83.7636 76.1784 83.8926 76.0714 84.0096 75.9594C84.1236 75.8434 84.2416 75.7394 84.3386 75.6224C84.7506 75.1744 85.0186 74.7214 85.1856 74.3364C85.2246 74.2384 85.2696 74.1494 85.2956 74.0594C85.3226 73.9704 85.3476 73.8874 85.3716 73.8094C85.4096 73.6514 85.4346 73.5164 85.4536 73.4084C85.4736 73.1904 85.4846 73.0744 85.4846 73.0744C85.4846 73.0744 85.4496 73.1864 85.3846 73.3974C85.3446 73.5004 85.2956 73.6244 85.2316 73.7674C85.1576 73.9084 85.0796 74.0704 84.9666 74.2404C84.7486 74.5824 84.4266 74.9614 83.9956 75.3344C83.5646 75.7074 83.0126 76.0604 82.3686 76.3724C82.1106 76.4984 81.8366 76.6174 81.5506 76.7294C81.5526 76.7094 81.5556 76.6904 81.5576 76.6714C83.6986 75.5934 85.0186 74.0434 85.2886 72.2394C85.5766 70.3244 84.6566 68.3724 82.6826 66.6884C82.8146 65.4594 82.9386 64.2414 83.0656 63.0484C83.2326 61.4934 83.3796 59.9794 83.5246 58.5344C83.6726 57.0804 83.8026 55.6974 83.9236 54.4124C84.1696 51.8224 84.3586 49.6404 84.4886 48.1014C84.6136 46.5514 84.6846 45.6604 84.6846 45.6604C84.6846 45.6604 84.5566 46.5454 84.3336 48.0854C84.1176 49.6164 83.8176 51.7864 83.4816 54.3674C83.3136 55.6474 83.1336 57.0254 82.9546 58.4764C82.7746 59.9174 82.5816 61.4274 82.3986 62.9804C82.2756 64.0244 82.1446 65.0884 82.0176 66.1614C81.8956 66.0714 81.7726 65.9824 81.6456 65.8954L84.0496 44.2044C84.7166 43.3594 85.8106 42.8564 86.9866 42.9754C88.6096 43.1394 89.8116 44.4254 89.8706 45.9424L82.2556 97.4934L78.1926 97.0574L80.3036 78.0084L80.3036 78.0084ZM100.506 47.7394C100.335 48.5464 100.127 49.5224 99.8906 50.6374C99.6556 51.7464 99.3916 52.9924 99.0946 54.3414C98.8016 55.6834 98.4866 57.1284 98.1556 58.6474C97.8256 60.1564 97.4856 61.7374 97.1176 63.3594C96.3976 66.5694 95.6406 69.9454 94.8946 73.2704C94.1396 76.5444 93.3966 79.7704 92.7086 82.7524C92.3716 84.2294 92.0336 85.6444 91.7166 86.9794C91.4026 88.3054 91.1066 89.5524 90.8346 90.6964C90.5676 91.8354 90.3146 92.8724 90.0906 93.7864C89.8686 94.6974 89.6756 95.4884 89.5176 96.1384C89.1976 97.4304 89.0156 98.1654 89.0156 98.1654C89.0156 98.1654 89.1686 97.4254 89.4366 96.1254C89.5736 95.4724 89.7416 94.6774 89.9336 93.7614C90.1266 92.8414 90.3456 91.7984 90.5956 90.6574C90.8446 89.5094 91.1156 88.2584 91.4036 86.9274C91.6936 85.5884 91.9986 84.1673 92.3326 82.6893C92.9996 79.7034 93.7206 76.4724 94.4526 73.1953C95.2156 69.8723 95.9896 66.5003 96.7256 63.2923C97.0936 61.6703 97.4696 60.0953 97.8236 58.5903C98.1806 57.0763 98.5206 55.6353 98.8356 54.2973C99.1506 52.9514 99.4506 51.7123 99.7176 50.6084C99.9856 49.4994 100.221 48.5284 100.414 47.7254C100.81 46.1124 101.037 45.1864 101.037 45.1864C101.037 45.1864 100.845 46.1164 100.506 47.7394L100.506 47.7394ZM83.7356 97.0594C83.8456 96.3884 83.9796 95.5704 84.1346 94.6284C84.2896 93.6824 84.4646 92.6094 84.6676 91.4344C84.8686 90.2524 85.0876 88.9654 85.3206 87.5954C85.5556 86.2164 85.8016 84.7534 86.0736 83.2304C86.6166 80.1534 87.2046 76.8224 87.8016 73.4424C88.4276 70.0134 89.0626 66.5314 89.6676 63.2184C89.9696 61.5434 90.2806 59.9144 90.5736 58.3594C90.8686 56.7934 91.1496 55.3034 91.4106 53.9194C91.6706 52.5264 91.9196 51.2444 92.1426 50.1014C92.3656 48.9534 92.5606 47.9474 92.7216 47.1164C93.0516 45.4464 93.2416 44.4864 93.2416 44.4864C93.2416 44.4864 93.0846 45.4514 92.8126 47.1304C92.6746 47.9654 92.5066 48.9744 92.3146 50.1274C92.1246 51.2744 91.9116 52.5624 91.6696 53.9584C91.4316 55.3454 91.1756 56.8394 90.9056 58.4094C90.6376 59.9684 90.3616 61.6024 90.0596 63.2774C89.4706 66.5924 88.8526 70.0774 88.2436 73.5084C87.6236 76.8854 87.0136 80.2124 86.4486 83.2864C86.1736 84.8084 85.8936 86.2664 85.6326 87.6414C85.3736 89.0074 85.1296 90.2914 84.9056 91.4694C84.6856 92.6414 84.4756 93.7094 84.2906 94.6514C84.1066 95.5894 83.9476 96.4035 83.8166 97.0715C83.5506 98.4005 83.3996 99.1564 83.3996 99.1564C83.3996 99.1564 83.5216 98.3964 83.7356 97.0594L83.7356 97.0594ZM97.9736 47.5064C97.8146 48.3214 97.6226 49.3074 97.4036 50.4334C97.1856 51.5544 96.9416 52.8124 96.6656 54.1754C96.3936 55.5304 96.1016 56.9904 95.7936 58.5244C95.4876 60.0484 95.1716 61.6454 94.8296 63.2834C94.1596 66.5254 93.4566 69.9334 92.7626 73.2904C92.0596 76.5954 91.3666 79.8514 90.7266 82.8624C90.4136 84.3524 90.0976 85.7814 89.8026 87.1284C89.5096 88.4664 89.2336 89.7244 88.9806 90.8794C88.7316 92.0284 88.4946 93.0744 88.2856 93.9974C88.0786 94.9164 87.8986 95.7144 87.7506 96.3694C87.4516 97.6724 87.2806 98.4134 87.2806 98.4134C87.2806 98.4134 87.4216 97.6674 87.6686 96.3564C87.7956 95.6984 87.9506 94.8954 88.1286 93.9724C88.3066 93.0444 88.5096 91.9924 88.7406 90.8404C88.9716 89.6824 89.2226 88.4204 89.4896 87.0774C89.7586 85.7264 90.0406 84.2924 90.3516 82.8014C90.9716 79.7874 91.6416 76.5274 92.3216 73.2184C93.0316 69.8634 93.7526 66.4584 94.4386 63.2184C94.7806 61.5804 95.1316 59.9894 95.4626 58.4694C95.7956 56.9394 96.1126 55.4834 96.4076 54.1314C96.7006 52.7714 96.9816 51.5194 97.2316 50.4034C97.4826 49.2824 97.7016 48.3014 97.8836 47.4894C98.2546 45.8594 98.4666 44.9224 98.4666 44.9224C98.4666 44.9224 98.2866 45.8664 97.9736 47.5064L97.9736 47.5064ZM95.4706 47.2794C95.3206 48.1034 95.1396 49.1004 94.9326 50.2394C94.7276 51.3724 94.4966 52.6444 94.2356 54.0224C93.9786 55.3924 93.7026 56.8684 93.4116 58.4184C93.1226 59.9584 92.8246 61.5724 92.5006 63.2274C91.8666 66.5034 91.2016 69.9464 90.5456 73.3384C89.8796 76.6764 89.2236 79.9664 88.6176 83.0054C88.3216 84.5104 88.0216 85.9534 87.7416 87.3124C87.4636 88.6634 87.2016 89.9334 86.9616 91.0984C86.7256 92.2584 86.5006 93.3144 86.3026 94.2464C86.1056 95.1745 85.9346 95.9794 85.7946 96.6414C85.5096 97.9564 85.3486 98.7054 85.3486 98.7054C85.3486 98.7054 85.4806 97.9524 85.7136 96.6294C85.8326 95.9644 85.9786 95.1554 86.1466 94.2234C86.3146 93.2864 86.5046 92.2254 86.7236 91.0634C86.9406 89.8944 87.1776 88.6204 87.4296 87.2654C87.6836 85.9014 87.9496 84.4534 88.2426 82.9484C88.8286 79.9054 89.4616 76.6124 90.1046 73.2704C90.7776 69.8815 91.4606 66.4404 92.1096 63.1664C92.4336 61.5114 92.7676 59.9025 93.0806 58.3664C93.3966 56.8194 93.6976 55.3484 93.9776 53.9814C94.2556 52.6064 94.5226 51.3404 94.7606 50.2124C94.9986 49.0784 95.2076 48.0864 95.3796 47.2654C95.7326 45.6164 95.9346 44.6694 95.9346 44.6694C95.9346 44.6694 95.7656 45.6214 95.4706 47.2794L95.4706 47.2794ZM95.7936 41.3014C95.7376 41.4624 95.6676 41.6124 95.5826 41.7504C95.5866 41.6664 95.5846 41.5844 95.5766 41.5054L95.5716 41.4524L95.5686 41.4294L95.5676 41.4204L95.5646 41.4034L95.5516 41.3344L95.5246 41.1974C95.5046 41.1034 95.4746 40.9954 95.4456 40.8984C95.4156 40.8014 95.3856 40.7104 95.3506 40.6204C95.2816 40.4414 95.1996 40.2734 95.1146 40.1194C95.0266 39.9664 94.9336 39.8274 94.8396 39.7044C94.6506 39.4594 94.4586 39.2804 94.3116 39.1664C94.2396 39.1084 94.1736 39.0704 94.1326 39.0424C94.0896 39.0155 94.0646 39.0034 94.0646 39.0034C94.0646 39.0034 94.0716 39.1075 94.0836 39.2894C94.0966 39.4654 94.1186 39.7094 94.1476 39.9874C94.1756 40.2564 94.2086 40.5694 94.2446 40.9034C94.2486 40.9854 94.2616 41.0684 94.2686 41.1484C94.2726 41.2294 94.2816 41.3004 94.2896 41.3904L94.3016 41.5294L94.3086 41.5995L94.3106 41.6175L94.3116 41.6265L94.3116 41.6305C94.3136 41.6435 94.3096 41.6155 94.3096 41.6185L94.3096 41.6195L94.3086 41.6355C94.3086 41.6805 94.3086 41.7195 94.2996 41.7495C94.2866 41.8115 94.2726 41.8635 94.2136 41.9395C94.1586 42.0155 94.0656 42.1015 93.9546 42.1855C93.7286 42.3515 93.4466 42.5005 93.1976 42.6305C93.1706 42.6445 93.1466 42.6565 93.1206 42.6705C92.9236 42.5435 92.6936 42.4625 92.4456 42.4375C91.9806 42.3905 91.5356 42.5335 91.1536 42.7385C90.6166 42.5315 90.1656 42.1385 89.7296 41.7545L89.6446 41.6795C89.5266 41.5755 89.4176 41.4715 89.3176 41.3685C89.2636 40.8385 89.2366 39.8865 89.5666 39.0165C89.8386 39.2925 90.2536 39.5435 90.4946 39.6785C90.1226 40.0945 89.2946 41.1675 90.4186 41.4315C91.4656 41.6765 91.0776 40.4845 90.8146 39.8655C91.4966 39.9195 92.8406 39.9225 92.2686 39.0165C91.7556 38.2045 91.1006 38.8665 90.7326 39.3765C90.7636 38.8785 90.7246 38.0905 90.1816 38.0205C90.2316 37.9685 90.2836 37.9175 90.3386 37.8695C90.4666 37.8355 90.6016 37.8025 90.7466 37.7705C90.8536 37.7465 90.9616 37.7215 91.0706 37.6965C91.6096 37.5705 92.1256 37.4505 92.6456 37.5035C92.7886 37.5175 92.9316 37.5455 93.0746 37.5895C93.7226 37.7875 94.0596 38.2715 94.4476 38.8305C94.5656 39.0005 94.6876 39.1755 94.8206 39.3445C94.9066 39.4535 94.9936 39.5605 95.0786 39.6655C95.6516 40.3734 95.9686 40.7974 95.7936 41.3014L95.7936 41.3014ZM87.8996 29.7454L87.9566 29.7574C88.4936 29.8644 88.8016 30.0804 88.8726 30.3974C88.9016 30.5294 88.8826 30.7074 88.5806 31.0334C88.3106 31.0804 88.0506 31.1414 87.8016 31.2004C87.6966 31.2254 87.5916 31.2504 87.4876 31.2734C87.3986 31.2934 87.3076 31.3154 87.2166 31.3384C87.0276 30.8384 86.7116 30.4104 86.2736 30.0614C86.4876 29.9064 86.7686 29.7514 87.0566 29.6844C87.1806 29.6554 87.3146 29.6554 87.4546 29.6694C87.6006 29.6854 87.7516 29.7154 87.8996 29.7454L87.8996 29.7454ZM86.6556 32.6874C86.9476 32.5664 87.3016 32.4614 87.7276 32.3664C87.8356 32.3424 87.9456 32.3164 88.0556 32.2904C88.5986 32.1614 89.1186 32.0384 89.6446 32.0914C89.7886 32.1054 89.9336 32.1334 90.0786 32.1784C90.4966 32.3064 90.7866 32.5544 91.0456 32.8654C90.9636 32.8394 90.8866 32.8174 90.8186 32.8004C90.6906 32.7634 90.5846 32.7484 90.5156 32.7344C90.4446 32.7224 90.4066 32.7184 90.4066 32.7184C90.4066 32.7184 90.5166 32.8194 90.7086 32.9964C90.8956 33.1724 91.1616 33.4204 91.4436 33.7234C91.5836 33.8744 91.7266 34.0414 91.8556 34.2194C91.9846 34.3964 92.0926 34.5894 92.1596 34.7744C92.2206 34.9624 92.2366 35.1314 92.1966 35.2884C92.1906 35.3284 92.1726 35.3684 92.1586 35.4084C92.1536 35.4284 92.1386 35.4484 92.1306 35.4684L92.1166 35.4994L92.1096 35.5154L92.1096 35.5154L92.0566 35.6084C92.0476 35.6234 92.0376 35.6424 92.0306 35.6534L92.0116 35.6784L91.9756 35.7294L91.9266 35.7874C91.8006 35.9454 91.6386 36.0654 91.4536 36.1604C91.3616 36.2084 91.2586 36.2424 91.1566 36.2774C91.0516 36.3064 90.9426 36.3314 90.8316 36.3474C90.6096 36.3824 90.3806 36.3854 90.1596 36.3724C89.9386 36.3594 89.7256 36.3274 89.5296 36.2844C89.1366 36.1974 88.8076 36.0714 88.5826 35.9614C88.4706 35.9054 88.3796 35.8584 88.3206 35.8224C88.2596 35.7874 88.2266 35.7684 88.2266 35.7684C88.2266 35.7684 88.2406 35.8024 88.2716 35.8664C88.3046 35.9284 88.3516 36.0234 88.4326 36.1294C88.5106 36.2374 88.6146 36.3664 88.7546 36.4944C88.8936 36.6234 89.0646 36.7564 89.2696 36.8784C89.3376 36.9184 89.4096 36.9564 89.4846 36.9934C89.2736 37.0694 89.0676 37.1584 88.8696 37.2634C88.6916 36.9894 88.4806 36.7314 88.2786 36.4854C88.1946 36.3834 88.1106 36.2804 88.0266 36.1744C87.9106 36.0284 87.7996 35.8714 87.6836 35.7054C87.3856 35.2814 87.0586 34.8194 86.5756 34.4644C86.3396 33.9384 86.2046 33.2554 86.6556 32.6874L86.6556 32.6874ZM101.342 42.0034C101.48 42.1594 101.603 42.3344 101.647 42.4864C101.672 42.5614 101.673 42.6234 101.662 42.6754C101.655 42.7274 101.631 42.7794 101.588 42.8414C101.504 42.9684 101.377 43.0554 101.185 43.1254C100.994 43.1894 100.756 43.2224 100.512 43.2254C100.267 43.2324 100.015 43.2104 99.7686 43.1814C99.5226 43.1504 99.2826 43.1064 99.0536 43.0584C98.8256 43.0084 98.6096 42.9554 98.4106 42.8994C98.2976 42.8674 98.1926 42.8354 98.0916 42.8034C98.4786 42.4694 98.7306 41.9884 98.6576 41.2974C99.1006 41.2134 99.4016 40.9934 99.0826 40.4794C98.8446 40.0954 98.5696 40.0434 98.3056 40.1484C98.2476 40.0264 98.1826 39.9014 98.1096 39.7704C98.3676 39.7324 98.6226 39.7164 98.8786 39.7424C99.0206 39.7564 99.1636 39.7844 99.3056 39.8274C99.8546 39.9944 100.175 40.3684 100.493 40.8174C100.388 40.7904 100.291 40.7694 100.206 40.7544C99.9506 40.7044 99.7986 40.6984 99.7986 40.6984C99.7986 40.6984 99.9126 40.7864 100.113 40.9404C100.21 41.0164 100.328 41.1084 100.462 41.2144C100.595 41.3194 100.742 41.4384 100.894 41.5694C101.046 41.6994 101.202 41.8454 101.342 42.0034L101.342 42.0034ZM99.3316 34.4084C99.2736 34.4444 99.2166 34.4814 99.1586 34.5184C99.0866 34.5644 99.0156 34.6094 98.9446 34.6534C98.5076 34.2834 98.0066 33.9274 97.3746 33.7334C97.0926 33.6474 96.7896 33.5864 96.4746 33.5464C96.4156 33.4684 96.3556 33.3894 96.2896 33.3074C96.3116 33.3144 96.3336 33.3214 96.3536 33.3284C96.7706 33.4634 97.2436 33.6164 97.6986 33.5124C98.1146 33.4174 98.5356 33.4394 98.9416 33.4604L99.0146 33.4644C99.8356 33.5064 100.076 33.6984 100.109 33.7654C100.088 33.8194 99.9716 34.0074 99.3316 34.4084L99.3316 34.4084ZM96.1786 34.6344C96.4736 34.6644 96.7546 34.7184 97.0086 34.7954C97.4416 34.9284 97.8146 35.1884 98.1646 35.4804C98.1356 35.4724 98.1046 35.4634 98.0766 35.4564C97.6806 35.3564 97.3436 35.3104 97.1066 35.2884C96.8686 35.2684 96.7316 35.2694 96.7316 35.2694C96.7316 35.2694 96.8446 35.3394 97.0436 35.4614C97.2406 35.5824 97.5206 35.7514 97.8436 35.9554C98.0056 36.0574 98.1766 36.1704 98.3516 36.2914C98.5256 36.4144 98.7036 36.5444 98.8696 36.6864C99.0346 36.8274 99.1906 36.9804 99.2996 37.1354C99.4126 37.2894 99.4586 37.4344 99.4496 37.5284C99.4466 37.5774 99.4336 37.6234 99.4076 37.6794C99.3926 37.7064 99.3766 37.7394 99.3576 37.7674C99.3146 37.8344 99.3026 37.8474 99.2766 37.8804C99.1696 38.0154 99.0606 38.1054 98.9226 38.1804C98.6476 38.3304 98.2316 38.3854 97.8636 38.4114C97.4916 38.4394 97.1556 38.4504 96.9176 38.4684C96.6786 38.4844 96.5336 38.5054 96.5336 38.5054C96.5336 38.5054 96.5596 38.5294 96.6116 38.5684C96.6626 38.6084 96.7386 38.6664 96.8396 38.7314C96.9076 38.7744 96.9866 38.8224 97.0766 38.8714C96.9726 38.8954 96.8686 38.9194 96.7656 38.9414C96.6786 38.9604 96.5896 38.9814 96.5006 39.0024C96.3376 38.3674 95.9756 37.2974 95.2856 36.6544C95.7296 36.2604 96.0286 35.7854 95.3056 35.5414C94.8076 35.3734 94.5486 35.5594 94.4186 35.8634C94.1646 35.4714 94.1556 35.0744 94.2026 34.7904C94.3116 34.7594 94.4236 34.7314 94.5416 34.7084C95.0766 34.6054 95.6496 34.5814 96.1786 34.6344L96.1786 34.6344ZM94.0636 32.6894C94.4256 32.9234 94.7196 33.2194 94.9886 33.5294C94.7716 33.5504 94.5546 33.5794 94.3406 33.6214C93.9596 33.6964 93.6086 33.8084 93.2886 33.9544C93.1946 33.8314 93.0976 33.7114 93.0036 33.5944C92.9206 33.4914 92.8356 33.3864 92.7526 33.2804C92.6366 33.1324 92.5276 32.9734 92.4116 32.8054C92.1726 32.4594 91.9156 32.0894 91.5726 31.7704C91.7046 31.7864 91.8336 31.8074 91.9556 31.8334C92.6866 31.9894 93.4746 32.3104 94.0636 32.6894L94.0636 32.6894ZM86.7546 36.3334C86.8236 36.4314 86.8946 36.5304 86.9676 36.6304C86.8626 36.5604 86.7586 36.4994 86.6576 36.4444C86.2496 36.2244 85.8866 36.1074 85.6296 36.0414C85.5026 36.0054 85.3976 35.9894 85.3286 35.9754C85.2586 35.9634 85.2196 35.9594 85.2196 35.9594C85.2196 35.9594 85.3296 36.0594 85.5216 36.2334C85.7086 36.4074 85.9756 36.6514 86.2576 36.9504C86.3976 37.0994 86.5416 37.2644 86.6706 37.4394C86.8006 37.6144 86.9096 37.8044 86.9776 37.9874C87.0406 38.1734 87.0576 38.3394 87.0196 38.4944C87.0146 38.5334 86.9966 38.5724 86.9836 38.6124C86.9796 38.6324 86.9646 38.6524 86.9556 38.6724L86.9426 38.7024L86.9356 38.7174L86.9356 38.7184L86.8836 38.8104C86.8756 38.8244 86.8656 38.8444 86.8586 38.8544L86.8396 38.8784L86.8046 38.9284L86.7566 38.9854C86.6336 39.1414 86.4746 39.2584 86.2916 39.3524C86.2006 39.3994 86.0996 39.4324 85.9976 39.4674C85.8936 39.4964 85.7866 39.5204 85.6766 39.5364C85.4576 39.5704 85.2296 39.5734 85.0116 39.5604C84.7926 39.5474 84.5806 39.5154 84.3856 39.4734C83.9956 39.3874 83.6676 39.2634 83.4436 39.1544C83.3326 39.0994 83.2416 39.0534 83.1826 39.0174C83.1216 38.9824 83.0896 38.9634 83.0896 38.9634C83.0896 38.9634 83.1046 38.9974 83.1356 39.0594C83.1686 39.1204 83.2166 39.2144 83.2976 39.3184C83.3766 39.4254 83.4806 39.5524 83.6206 39.6784C83.7596 39.8064 83.9306 39.9364 84.1346 40.0574C84.3396 40.1764 84.5766 40.2854 84.8436 40.3664C85.0636 40.4314 85.3046 40.4804 85.5626 40.4954C84.9026 40.5544 84.2276 40.5004 83.6786 40.3344C83.0646 40.1484 82.5616 39.7094 82.0746 39.2844L81.9876 39.2084C81.5706 38.8454 81.2636 38.4824 81.0646 38.1214C81.4896 38.0664 82.0676 37.6614 82.3516 37.4434C82.6086 37.9344 83.3226 39.0824 84.0056 38.1624C84.6446 37.3024 83.3466 37.2124 82.6526 37.2224C82.9636 36.6224 83.4806 35.3984 82.3906 35.5864C81.4186 35.7544 81.8046 36.5934 82.1526 37.1164C81.7576 36.9364 81.1446 36.7254 80.8026 36.9504C80.8156 36.8384 80.8386 36.7264 80.8726 36.6154L80.8726 36.6154C81.0796 35.9504 81.7046 35.5584 83.0286 35.2634C83.1356 35.2394 83.2436 35.2144 83.3526 35.1884C84.0386 35.0274 84.6866 34.8744 85.3596 35.0794C86.0116 35.2814 86.3566 35.7694 86.7546 36.3334L86.7546 36.3334ZM85.7406 29.0584C85.6046 29.1484 85.4746 29.2464 85.3536 29.3534C85.3106 29.3914 85.2696 29.4304 85.2296 29.4694C84.9006 29.3374 84.5386 29.2294 84.1406 29.1504L84.0256 29.1274C83.7856 29.0794 83.5346 29.0294 83.2766 28.9904C83.3186 28.9184 83.3666 28.8484 83.4246 28.7824C83.6426 28.5324 83.9316 28.3414 84.1776 28.2834C84.2296 28.2714 84.2896 28.2704 84.3536 28.2764C84.5066 28.2914 84.6876 28.3514 84.8646 28.4094L84.9196 28.4274C85.3156 28.5574 85.5866 28.7654 85.7406 29.0584L85.7406 29.0584ZM81.6646 28.5834C81.8456 28.5924 81.9976 28.6094 82.1266 28.6304C82.0806 28.7334 82.0426 28.8384 82.0116 28.9464C81.8656 28.9614 81.7196 28.9824 81.5706 29.0174C80.8146 29.1944 80.0246 29.5794 79.3346 30.0934C79.2886 30.0844 79.2436 30.0724 79.1966 30.0644C79.1936 30.0634 79.1896 30.0634 79.1866 30.0624C78.9356 29.8644 78.6196 29.7124 78.2486 29.6124C78.2076 29.1244 78.2716 28.4964 78.4616 28.3064C78.4636 28.3064 78.4646 28.3064 78.4666 28.3064C78.5866 28.3184 78.8256 28.3954 78.9896 28.4484C79.4126 28.5854 79.8926 28.7394 80.3446 28.6334C80.7586 28.5364 81.1806 28.5584 81.5896 28.5794L81.6646 28.5834L81.6646 28.5834ZM77.3026 30.5744C77.4476 30.5894 77.5986 30.6194 77.7466 30.6484L77.8046 30.6604C78.0776 30.7144 78.2916 30.7974 78.4466 30.9064C78.0606 31.3574 77.7966 31.8464 77.6616 32.3594C77.1226 32.2644 76.6236 32.2834 76.1586 32.3314C76.0856 32.3044 76.0196 32.2794 75.9626 32.2564C75.9736 31.9324 75.9186 31.6114 75.7996 31.2784C75.8486 31.2174 75.9046 31.1564 75.9716 31.0964C76.1836 30.9074 76.5406 30.6744 76.9086 30.5884C77.0296 30.5604 77.1636 30.5604 77.3026 30.5744L77.3026 30.5744ZM64.7076 32.4564C65.1936 32.3224 65.7156 32.2794 66.1866 32.3274C66.3866 32.3474 66.5776 32.3844 66.7526 32.4374C66.8016 32.4524 66.8476 32.4714 66.8946 32.4904C66.8436 32.6884 66.8106 32.8864 66.7956 33.0834C66.7926 33.0824 66.7906 33.0804 66.7876 33.0794C66.6656 33.0244 66.5576 32.9844 66.4656 32.9594C66.2816 32.9094 66.1706 32.9044 66.1706 32.9044C66.1706 32.9044 66.2216 32.9964 66.3106 33.1584C66.3526 33.2374 66.4026 33.3304 66.4556 33.4334C66.5056 33.5384 66.5616 33.6514 66.6086 33.7714C66.6306 33.8324 66.6576 33.8904 66.6726 33.9524C66.6936 34.0134 66.7076 34.0734 66.7186 34.1324C66.7316 34.1924 66.7336 34.2474 66.7396 34.3024C66.7306 34.3554 66.7436 34.4054 66.7266 34.4504C66.7216 34.4964 66.7046 34.5384 66.6916 34.5784C66.6896 34.5994 66.6716 34.6194 66.6616 34.6394C66.6556 34.6494 66.6516 34.6594 66.6476 34.6704L66.6426 34.6834L66.6416 34.6854L66.6376 34.6934L66.5746 34.8164L66.5436 34.8784L66.5176 34.9214C66.5006 34.9504 66.4836 34.9784 66.4686 35.0084L66.4116 35.0974C66.3776 35.1624 66.3336 35.2074 66.2986 35.2654C66.2566 35.3094 66.2226 35.3654 66.1816 35.4014C66.1446 35.4474 66.1046 35.4764 66.0676 35.5154C66.0486 35.5324 66.0276 35.5424 66.0076 35.5584C65.9976 35.5654 65.9876 35.5734 65.9786 35.5824L65.9466 35.5994C65.8656 35.6564 65.7636 35.6844 65.6516 35.7144C65.5946 35.7274 65.5336 35.7284 65.4736 35.7404C65.4086 35.7424 65.3456 35.7444 65.2856 35.7454C65.2226 35.7494 65.1606 35.7374 65.0986 35.7364C65.0366 35.7354 64.9776 35.7294 64.9206 35.7214C64.8076 35.7054 64.6996 35.7004 64.6136 35.6844C64.4386 35.6594 64.3256 35.6504 64.3256 35.6504C64.3256 35.6504 64.3296 35.6584 64.3376 35.6714C64.3136 35.6544 64.2906 35.6384 64.2696 35.6234C63.9906 35.4254 63.6046 35.1514 63.0606 35.0394C62.9126 34.7494 62.8626 34.4854 62.9466 34.1804C62.9636 34.1164 62.9876 34.0584 63.0086 33.9974C63.3096 34.0804 63.8156 33.9004 64.1356 33.7614C64.1116 34.3234 64.1516 35.4244 64.9046 34.9424C65.5786 34.5104 64.9966 33.9824 64.5506 33.6874C65.0746 33.7104 65.9686 33.6414 65.6116 32.8404C65.2056 31.9294 64.5196 33.0584 64.2846 33.4964C64.1266 33.3664 63.8626 33.1694 63.5966 33.0604C63.8866 32.7824 64.2566 32.5804 64.7076 32.4564L64.7076 32.4564Z" id="Shape" fill="#3F3F3F" fill-rule="evenodd" stroke="none" />
        <path d="M71.4006 0.930405C44.6466 -4.31859 18.6106 13.1764 13.3616 39.9304C10.3676 55.1904 14.7756 70.2154 24.0796 81.2844C19.1146 78.4334 14.6906 74.5044 11.1656 69.4944C-2.4964 50.0764 17.8146 14.2114 17.8146 14.2114L10.0956 8.98141C10.0956 8.98141 -10.1944 44.5054 6.7546 69.8964C13.1906 79.5384 21.8686 84.3624 29.3096 86.7684C28.9206 85.3644 28.5156 83.8994 28.1046 82.4054C26.6936 80.9854 25.3136 79.4184 24.0026 77.6974C20.8656 73.5334 18.1306 68.4784 16.4026 62.7294C14.6676 56.9954 13.9556 50.5704 14.7016 44.0494C15.4276 37.5384 17.5246 30.9314 21.0676 25.0044C24.5966 19.0754 29.5356 13.8774 35.3366 9.94539C41.1686 6.0584 47.8486 3.45139 54.6706 2.42339C61.4926 1.37938 68.4156 1.93939 74.7026 3.72339C81.0376 5.50038 86.7076 8.58238 91.3636 12.3584C96.0336 16.1304 99.6796 20.5734 102.35 25.0514C105.001 29.5524 106.683 34.0834 107.626 38.2014C108.576 42.3234 108.879 46.0144 108.857 49.0394C108.847 52.0694 108.495 54.4274 108.276 56.0274C107.98 57.6164 107.822 58.4644 107.822 58.4644C107.822 58.4644 107.951 57.6124 108.192 56.0154C108.362 54.4104 108.609 52.0514 108.553 49.0424C108.498 46.0384 108.103 42.3864 107.061 38.3414C106.525 36.3253 105.859 34.2014 104.933 32.0534C104.022 29.9014 102.937 27.6914 101.598 25.5064C98.9076 21.1524 95.2686 16.8594 90.6546 13.2494C86.0576 9.63635 80.4756 6.73836 74.3476 5.05136C71.2656 4.20436 68.0636 3.66235 64.7936 3.46336C61.5256 3.26736 58.1996 3.41237 54.8986 3.91336C48.2966 4.92436 41.8406 7.46936 36.2066 11.2404C30.5846 15.0303 25.7906 20.0474 22.3596 25.7784C20.6486 28.6443 19.2546 31.6694 18.2026 34.7693L17.8116 35.9314L17.4806 37.0984C17.3716 37.4874 17.2626 37.8754 17.1536 38.2634C17.0626 38.6653 16.9716 39.0663 16.8806 39.4664C16.7926 39.8604 16.7046 40.2543 16.6166 40.6463C16.5476 41.0434 16.4786 41.4393 16.4096 41.8344C16.3436 42.2303 16.2666 42.6234 16.2086 43.0184C16.1606 43.4154 16.1116 43.8114 16.0636 44.2064C15.3086 50.5334 15.8806 56.7864 17.4896 62.4104C19.0886 68.0464 21.6876 73.0384 24.7036 77.1734C25.6586 78.4594 26.6496 79.6664 27.6616 80.7934C25.3616 72.4034 22.9766 63.5354 22.0616 60.1283C21.2246 59.8953 20.5756 59.1983 20.4216 58.3183L19.9246 55.4713C19.7226 54.3133 20.4226 53.1983 21.5536 52.8773C22.3676 52.6463 23.1966 52.4263 24.0256 52.2144C24.0076 51.9664 23.9856 51.7183 23.9726 51.4694C23.9356 50.7774 24.2176 50.1174 24.7456 49.6584C25.2856 49.1903 25.9956 48.9994 26.6946 49.1374L30.0126 49.7884C30.0156 50.1364 30.0296 50.4824 30.0436 50.8284C31.8406 50.4534 33.4106 50.1553 34.5236 49.9523L33.5106 39.0934C32.3186 38.8194 31.3086 38.5753 30.5386 38.3983C29.4816 38.1483 28.8806 37.9943 28.8806 37.9943C28.8806 37.9943 29.4956 38.0793 30.5686 38.2473C31.3246 38.3713 32.3146 38.5223 33.4746 38.7103L33.1826 35.5853C32.9436 36.0803 32.7166 36.5813 32.5026 37.0923L29.1856 36.4413C28.4856 36.3044 27.8996 35.8593 27.5776 35.2224C27.2616 34.5984 27.2506 33.8804 27.5466 33.2543C30.5436 26.9023 35.2636 21.5054 41.1966 17.6454C41.6826 17.3294 42.2636 17.2194 42.8276 17.3304C42.9306 17.3504 43.0336 17.3784 43.1346 17.4133C43.8116 17.6473 44.3326 18.1684 44.5636 18.8433L45.5776 21.8063C43.8136 22.9733 42.1366 24.2963 40.5676 25.7603C39.1846 27.0033 37.9076 28.3713 36.7536 29.8483L37.6466 39.4223C37.7536 39.4413 37.8596 39.4593 37.9686 39.4783C38.4936 39.5713 39.0326 39.6663 39.5836 39.7643C39.8586 39.8143 40.1376 39.8643 40.4176 39.9153C40.5576 39.9413 40.6996 39.9673 40.8406 39.9933C40.9766 40.0113 41.1016 40.0393 41.2356 40.0443C42.2916 40.1373 43.4026 39.6933 44.1366 38.8703C44.3126 38.6743 44.4676 38.4483 44.6396 38.1743C44.8096 37.9113 44.9876 37.6523 45.1706 37.3963C45.5386 36.8853 45.9296 36.3883 46.3436 35.9103C46.7616 35.4363 47.2016 34.9813 47.6586 34.5483C47.8856 34.3343 48.1236 34.1183 48.3586 33.9163C48.6036 33.7103 48.7976 33.5373 48.9796 33.3253C49.7006 32.4913 49.9936 31.3203 49.7666 30.3013C49.7516 30.1913 49.6916 30.0183 49.6636 29.9103L49.5286 29.5013C49.4406 29.2293 49.3526 28.9613 49.2666 28.6943C49.0956 28.1613 48.9276 27.6403 48.7646 27.1333C48.4426 26.1173 48.1376 25.1563 47.8566 24.2703C47.2966 22.4963 46.8616 21.0063 46.5426 19.9693C46.2306 18.9293 46.0626 18.3313 46.0626 18.3313C46.0626 18.3313 46.2966 18.9063 46.6876 19.9193C47.0716 20.9353 47.6406 22.3783 48.2856 24.1233C48.6066 24.9963 48.9546 25.9423 49.3226 26.9423C49.5046 27.4433 49.6916 27.9573 49.8826 28.4843C49.9776 28.7473 50.0726 29.0133 50.1696 29.2823L50.3136 29.6873C50.3646 29.8563 50.4056 29.9553 50.4426 30.1323C50.7476 31.3803 50.4376 32.7923 49.5636 33.8183C49.3516 34.0723 49.0866 34.3093 48.8626 34.4993C48.6336 34.6993 48.4156 34.8993 48.1946 35.1103C47.7586 35.5303 47.3386 35.9713 46.9396 36.4303C46.5396 36.8883 46.1586 37.3623 45.8016 37.8513C45.6246 38.0963 45.4506 38.3443 45.2856 38.5963C45.1276 38.8413 44.9386 39.1253 44.7046 39.3813C43.8066 40.3863 42.4336 40.8743 41.1726 40.7373C41.0156 40.7273 40.8566 40.6913 40.7076 40.6673C40.5666 40.6383 40.4256 40.6083 40.2866 40.5793C40.0076 40.5203 39.7306 40.4613 39.4566 40.4033C38.9096 40.2853 38.3746 40.1703 37.8536 40.0573C37.8026 40.0463 37.7526 40.0353 37.7016 40.0243L38.5626 49.2593C40.3986 48.9643 42.9836 48.5803 45.7556 48.2583C45.7696 48.0423 45.7846 47.8253 45.8076 47.6083C45.8446 47.3313 45.8806 47.0533 45.9176 46.7743L45.9736 46.3543L45.9766 46.3283L45.9906 46.2683L46.0026 46.2193L46.0256 46.1203L46.0726 45.9223C46.1346 45.6583 46.1976 45.3933 46.2606 45.1263L46.3576 44.7253L46.4996 44.3083C46.6966 43.7553 46.8646 43.1743 47.1296 42.6593C47.2536 42.3953 47.3786 42.1303 47.5036 41.8653C47.6266 41.5983 47.7976 41.3573 47.9426 41.1013C49.1436 39.0743 50.8166 37.2853 52.7946 35.9303C54.7956 34.6093 57.0856 33.7373 59.4156 33.3903C60.0416 33.2923 60.6726 33.2403 61.3016 33.2243C61.6976 32.1873 62.4446 31.3963 63.4626 30.9353C63.5746 30.0643 64.1356 28.1733 65.7036 27.8283C65.8286 27.8013 65.9566 27.7873 66.0856 27.7873C66.2146 27.7873 66.3436 27.8013 66.4736 27.8283C67.0506 27.3123 67.7776 26.9223 68.4776 26.7563C68.7176 26.6993 68.9726 26.6703 69.2356 26.6703C69.6806 26.6703 70.0766 26.7503 70.3956 26.8143L70.4646 26.8283C70.9886 26.9333 71.4516 27.1053 71.8476 27.3433C72.1866 27.1083 72.5536 26.9393 72.9236 26.8523C73.1066 26.8093 73.2966 26.7873 73.4896 26.7873C73.9076 26.7873 74.2726 26.8883 74.5626 26.9803C74.8636 26.6233 75.1676 26.2633 75.4786 25.8943C76.1986 25.0533 76.9326 24.1763 77.6966 23.3003C78.4576 22.4213 79.2306 21.5293 80.0026 20.6363L80.5866 19.9713C80.7666 19.7553 80.9246 19.5553 81.0536 19.3203C81.3146 18.8613 81.4646 18.3433 81.4926 17.8213C81.5526 16.7743 81.1276 15.7253 80.3866 15.0403C80.2986 14.9463 80.2026 14.8763 80.1086 14.8033L79.9686 14.6923L79.7936 14.5873L79.6186 14.4833L79.5746 14.4573L79.5696 14.4543L79.5696 14.4543L79.5476 14.4433L79.4586 14.3973C79.3406 14.3353 79.2226 14.2743 79.1056 14.2133C78.6356 13.9713 78.1706 13.7453 77.7136 13.5323C76.7986 13.1113 75.9216 12.7383 75.0996 12.4193C73.4566 11.7843 72.0516 11.3363 71.0566 11.0643C70.0636 10.7863 69.4886 10.6433 69.4886 10.6433C69.4886 10.6433 69.6346 10.6653 69.9086 10.7073C70.1816 10.7503 70.5846 10.8113 71.0926 10.9143C72.1066 11.1213 73.5586 11.4343 75.2526 11.9913C76.0996 12.2673 77.0096 12.5953 77.9516 12.9913C78.4236 13.1883 78.9046 13.4003 79.3906 13.6273C79.8736 13.8463 80.3936 14.1043 80.8576 14.5263C81.7586 15.3253 82.3246 16.5753 82.2556 17.8573C82.2266 18.4953 82.0476 19.1333 81.7326 19.6983C81.5806 19.9813 81.3746 20.2463 81.1776 20.4843L80.5986 21.1533C79.8196 22.0403 79.0396 22.9263 78.2726 23.7993C77.5086 24.6753 76.7386 25.5213 76.0036 26.3493C75.7366 26.6453 75.4766 26.9333 75.2166 27.2213C75.6646 27.4333 76.0486 27.7223 76.3536 28.0733C76.5386 27.3953 76.8956 26.8723 77.4056 26.5503C77.7016 26.3633 78.0406 26.2683 78.4126 26.2683C78.8546 26.2683 79.2696 26.4023 79.6096 26.5123C79.6896 26.5383 79.8796 26.5993 79.9906 26.6253C80.3186 26.5583 80.6706 26.5253 81.0616 26.5253C81.2906 26.5253 81.5006 26.5363 81.6876 26.5453L81.7596 26.5493C82.1376 26.5683 82.4856 26.6163 82.7976 26.6923C83.0936 26.5133 83.4046 26.3833 83.7126 26.3103C83.8966 26.2673 84.0876 26.2453 84.2806 26.2453C84.7686 26.2453 85.1886 26.3833 85.4936 26.4833L85.5456 26.5003C86.2686 26.7363 86.8516 27.1443 87.2606 27.6953C87.2716 27.6953 87.2826 27.6953 87.2946 27.6953C87.6876 27.6953 88.0386 27.7663 88.2956 27.8183L88.3496 27.8293C89.5996 28.0793 90.4666 28.7993 90.7496 29.8153C90.9046 29.7973 91.0646 29.7883 91.2296 29.7883C91.4946 29.7883 91.7786 29.8203 92.0706 29.8683C91.3736 28.9323 90.6646 28.0603 89.9466 27.2403C90.3526 26.9743 90.8336 26.8393 91.3346 26.8663C91.4416 26.8723 91.5466 26.8853 91.6496 26.9053C92.2136 27.0163 92.7106 27.3363 93.0406 27.8133C93.7486 28.8343 94.4016 29.8863 95.0026 30.9623C95.0486 30.9903 95.0976 31.0183 95.1416 31.0473C95.2236 31.1003 95.3056 31.1563 95.3866 31.2164C95.5246 31.1864 95.6696 31.1714 95.8186 31.1714C96.1706 31.1714 96.5016 31.2554 96.7896 31.3444C96.5936 30.9364 96.4026 30.5524 96.2186 30.1944C96.0356 29.8504 95.8646 29.5274 95.7066 29.2294C95.5386 28.9374 95.3846 28.6684 95.2456 28.4254C94.9716 27.9374 94.7316 27.5644 94.5796 27.3054C94.4236 27.0474 94.3416 26.9104 94.3416 26.9104C94.3416 26.9104 94.4366 27.0394 94.6156 27.2814C94.7886 27.5284 95.0706 27.8684 95.3746 28.3414C95.5316 28.5754 95.7046 28.8344 95.8936 29.1164C96.0726 29.4044 96.2666 29.7164 96.4746 30.0494C96.7416 30.4914 97.0256 30.9794 97.3126 31.5054C97.3376 31.5124 97.3626 31.5194 97.3836 31.5244C97.7106 31.4584 98.0596 31.4263 98.4466 31.4263C98.6786 31.4263 98.8906 31.4373 99.0766 31.4473L99.1486 31.4513C101.406 31.5653 101.964 32.6833 102.096 33.3403C102.308 34.3994 101.633 35.1673 101.027 35.6463C101.761 36.7354 101.96 37.9203 101.585 39.0603C101.869 39.3694 102.089 39.6913 102.279 39.9693C102.383 40.1213 102.481 40.2643 102.577 40.3884C102.654 40.4884 102.733 40.5854 102.81 40.6824C103.294 41.2854 103.928 42.0744 103.962 43.0914C104.121 43.2094 104.264 43.3484 104.386 43.5043C105.126 44.4523 104.916 45.6313 104.673 46.9973C104.619 47.3013 104.563 47.6163 104.514 47.9383C104.503 48.0083 104.489 48.0793 104.47 48.1463L93.9976 87.0043C102.186 80.0153 108.165 70.3253 110.394 58.9653C115.65 32.2164 98.1546 6.1794 71.4006 0.930405L71.4006 0.930405ZM77.5176 21.6844C74.6316 20.0594 71.4456 18.8534 68.0176 18.1804C67.9226 18.1614 67.8276 18.1494 67.7326 18.1324C71.4016 18.4214 74.8876 19.3804 78.1346 20.9774L77.5176 21.6844L77.5176 21.6844ZM79.0216 15.5774C79.6716 15.9064 80.1236 16.5014 80.2626 17.2094C80.3966 17.8974 80.2096 18.5944 79.7506 19.1254C75.1646 16.7614 70.7346 15.9054 67.1416 15.7094C63.9136 15.5334 60.6576 15.8484 57.4766 16.6084L56.7996 14.6294C56.5716 13.9624 56.6616 13.2424 57.0466 12.6544C57.4416 12.0514 58.0846 11.6714 58.8116 11.6114C65.7206 11.0484 72.8356 12.4444 79.0216 15.5774L79.0216 15.5774Z" id="Shape" fill="#3F3F3F" fill-rule="evenodd" stroke="none" />
        <path d="M66.4116 68.4654L65.9156 68.4174L65.9636 67.7334L66.5276 67.7874C66.7386 67.8074 66.9306 67.8064 67.1046 67.7834C67.2786 67.7604 67.4276 67.7094 67.5516 67.6324C67.6756 67.5544 67.7746 67.4484 67.8486 67.3134C67.9226 67.1784 67.9676 67.0074 67.9826 66.8004C67.9976 66.5964 67.9786 66.4194 67.9246 66.2694C67.8706 66.1194 67.7886 65.9944 67.6766 65.8934C67.5656 65.7924 67.4246 65.7134 67.2566 65.6574C67.0876 65.6004 66.8976 65.5624 66.6856 65.5424L64.3486 65.3174L64.2976 66.1044L64.6096 66.1344L64.4676 68.2794L64.1576 68.2494L64.1066 69.0264L66.3576 69.2434L66.4116 68.4654L66.4116 68.4654ZM66.0636 66.2744L66.2396 66.2914C66.3406 66.3014 66.4136 66.3324 66.4606 66.3854C66.5076 66.4384 66.5276 66.5184 66.5196 66.6274L66.5076 66.7994C66.4996 66.9074 66.4686 66.9834 66.4136 67.0264C66.3586 67.0694 66.2826 67.0864 66.1856 67.0764L66.0096 67.0594L66.0636 66.2744L66.0636 66.2744Z" id="Shape" fill="#3F3F3F" fill-rule="evenodd" stroke="none" />
        <path d="M68.0126 68.4354C68.0876 68.6864 68.2046 68.8954 68.3646 69.0634C68.5236 69.2314 68.7226 69.3614 68.9626 69.4544C69.2016 69.5474 69.4706 69.6084 69.7706 69.6364C70.0696 69.6654 70.3446 69.6564 70.5946 69.6114C70.8446 69.5654 71.0606 69.4754 71.2436 69.3404C71.4266 69.2054 71.5746 69.0214 71.6876 68.7894C71.8006 68.5564 71.8716 68.2654 71.9006 67.9164C71.9286 67.5704 71.9066 67.2704 71.8336 67.0164C71.7606 66.7624 71.6436 66.5494 71.4846 66.3804C71.3256 66.2104 71.1246 66.0784 70.8846 65.9844C70.6436 65.8904 70.3726 65.8284 70.0706 65.7994C69.7686 65.7704 69.4916 65.7794 69.2406 65.8254C68.9886 65.8724 68.7716 65.9644 68.5886 66.1004C68.4056 66.2374 68.2586 66.4244 68.1466 66.6604C68.0346 66.8964 67.9666 67.1884 67.9416 67.5344C67.9126 67.8854 67.9376 68.1854 68.0126 68.4354L68.0126 68.4354ZM69.6216 66.9724C69.6316 66.8484 69.6676 66.7614 69.7306 66.7104C69.7936 66.6604 69.8846 66.6404 70.0016 66.6524C70.1196 66.6634 70.2056 66.7004 70.2596 66.7614C70.3136 66.8234 70.3366 66.9154 70.3266 67.0404L70.2136 68.4784C70.2036 68.6014 70.1676 68.6884 70.1046 68.7384C70.0416 68.7884 69.9516 68.8074 69.8346 68.7964C69.7176 68.7854 69.6316 68.7494 69.5776 68.6884C69.5236 68.6274 69.5006 68.5354 69.5096 68.4124L69.6216 66.9724L69.6216 66.9724Z" id="Shape" fill="#3F3F3F" fill-rule="evenodd" stroke="none" />
        <path d="M74.2316 69.2184L73.7346 69.1704L73.7936 68.4874L74.3586 68.5414C74.5696 68.5614 74.7616 68.5604 74.9366 68.5374C75.1116 68.5144 75.2616 68.4644 75.3866 68.3864C75.5116 68.3094 75.6136 68.2024 75.6896 68.0674C75.7666 67.9324 75.8146 67.7614 75.8326 67.5554C75.8516 67.3514 75.8346 67.1754 75.7836 67.0254C75.7326 66.8754 75.6516 66.7504 75.5416 66.6504C75.4316 66.5494 75.2926 66.4714 75.1246 66.4144C74.9566 66.3574 74.7666 66.3194 74.5546 66.2994L72.2176 66.0744L72.1526 66.8604L72.4646 66.8904L72.2856 69.0314L71.9756 69.0014L71.9116 69.7764L74.1636 69.9934L74.2316 69.2184L74.2316 69.2184ZM73.9206 67.0294L74.0976 67.0464C74.1976 67.0564 74.2716 67.0874 74.3176 67.1394C74.3636 67.1924 74.3816 67.2724 74.3726 67.3804L74.3576 67.5524C74.3486 67.6604 74.3156 67.7364 74.2596 67.7784C74.2036 67.8204 74.1266 67.8374 74.0306 67.8284L73.8546 67.8114L73.9206 67.0294L73.9206 67.0294Z" id="Shape" fill="#3F3F3F" fill-rule="evenodd" stroke="none" />
        <path d="M70.8826 71.0564C70.8166 70.8054 70.7076 70.5934 70.5546 70.4234C70.4016 70.2524 70.2066 70.1174 69.9706 70.0194C69.7346 69.9214 69.4666 69.8534 69.1686 69.8174C68.8696 69.7814 68.5956 69.7824 68.3446 69.8224C68.0936 69.8614 67.8756 69.9464 67.6896 70.0764C67.5046 70.2054 67.3536 70.3854 67.2356 70.6144C67.1186 70.8434 67.0426 71.1274 67.0076 71.4674C66.9726 71.8094 66.9886 72.1044 67.0566 72.3524C67.1246 72.6004 67.2346 72.8094 67.3876 72.9774C67.5406 73.1464 67.7346 73.2794 67.9696 73.3764C68.2046 73.4734 68.4696 73.5404 68.7656 73.5764C69.0616 73.6124 69.3346 73.6114 69.5836 73.5724C69.8326 73.5344 70.0496 73.4504 70.2346 73.3234C70.4196 73.1954 70.5716 73.0194 70.6896 72.7934C70.8076 72.5674 70.8856 72.2844 70.9236 71.9424C70.9626 71.6034 70.9486 71.3084 70.8826 71.0564L70.8826 71.0564ZM69.2396 72.4494C69.2266 72.5704 69.1886 72.6544 69.1246 72.7014C69.0606 72.7484 68.9706 72.7654 68.8546 72.7514C68.7386 72.7374 68.6546 72.7004 68.6026 72.6384C68.5506 72.5774 68.5306 72.4864 68.5436 72.3654L68.6936 70.9574C68.7066 70.8354 68.7446 70.7514 68.8096 70.7034C68.8736 70.6554 68.9636 70.6394 69.0806 70.6534C69.1966 70.6674 69.2816 70.7054 69.3336 70.7674C69.3856 70.8294 69.4056 70.9214 69.3926 71.0424L69.2396 72.4494L69.2396 72.4494Z" id="Shape" fill="#3F3F3F" fill-rule="evenodd" stroke="none" />
        <path d="M74.7316 72.1724C74.8406 72.0314 74.9076 71.8584 74.9316 71.6524C74.9546 71.4594 74.9426 71.2914 74.8956 71.1504C74.8486 71.0084 74.7706 70.8894 74.6646 70.7924C74.5576 70.6954 74.4216 70.6184 74.2566 70.5594C74.0916 70.5014 73.9036 70.4594 73.6946 70.4344L71.2816 70.1414L71.1956 70.9104L71.5036 70.9474L71.2676 73.0444L70.9606 73.0074L70.8756 73.7664L72.9486 74.0184L73.0366 73.2594L72.6996 73.2184L72.7876 72.4564C72.8936 72.4694 72.9836 72.4854 73.0576 72.5054C73.1316 72.5254 73.1916 72.5534 73.2376 72.5884C73.2836 72.6234 73.3146 72.6714 73.3296 72.7314C73.3446 72.7914 73.3476 72.8674 73.3366 72.9604L73.2096 74.0484L74.8276 74.2444L74.9196 73.4864L74.6796 73.4574L74.7226 73.1004C74.7606 72.7814 74.6186 72.5784 74.2966 72.4924L74.2976 72.4454C74.4776 72.4054 74.6236 72.3144 74.7316 72.1724L74.7316 72.1724ZM73.4636 71.6594C73.4516 71.7654 73.4176 71.8384 73.3626 71.8794C73.3076 71.9204 73.2306 71.9344 73.1316 71.9224L72.8546 71.8884L72.9426 71.1224L73.2206 71.1564C73.3196 71.1684 73.3916 71.2014 73.4356 71.2534C73.4796 71.3064 73.4956 71.3854 73.4836 71.4914L73.4636 71.6594L73.4636 71.6594Z" id="Shape" fill="#3F3F3F" fill-rule="evenodd" stroke="none" />
        <path d="M31.7466 92.3984C31.8006 92.5874 31.8536 92.7734 31.9056 92.9564C32.1666 93.8694 32.4066 94.6984 32.6196 95.4214C32.6626 95.5664 32.7036 95.7064 32.7446 95.8424C32.8656 96.2504 32.9776 96.6194 33.0776 96.9454C33.1446 97.1624 33.2066 97.3594 33.2626 97.5364C33.3126 97.6964 33.4136 97.9324 33.6166 98.1934C33.6506 98.2374 33.6866 98.2814 33.7266 98.3264C34.0836 98.7294 34.6876 99.1694 35.7096 99.4754C37.6576 100.058 40.6656 100.001 44.6506 99.3044C44.8996 99.2614 45.1446 99.2164 45.3846 99.1704C47.3056 98.8054 48.9416 98.3734 50.2836 97.8774C50.6186 97.7534 50.9356 97.6254 51.2346 97.4934C51.3836 97.4274 51.5286 97.3604 51.6686 97.2924C51.9486 97.1564 52.2096 97.0174 52.4516 96.8734C52.5726 96.8014 52.6886 96.7294 52.8006 96.6554C52.9126 96.5814 53.0196 96.5074 53.1216 96.4314C53.2166 96.3614 53.3066 96.2904 53.3916 96.2204C53.5186 96.1154 53.6296 96.0124 53.7346 95.9094C54.2606 95.3944 54.5286 94.9084 54.6556 94.5154C54.6896 94.4104 54.7136 94.3124 54.7306 94.2214C54.7566 94.0854 54.7656 93.9664 54.7666 93.8684C54.7666 93.8674 54.7666 93.8664 54.7666 93.8654C54.7666 93.8344 54.7666 93.8044 54.7656 93.7774C54.7386 93.0354 54.6796 91.9534 54.5946 90.6164C54.5846 90.4494 54.5736 90.2784 54.5616 90.1034C54.5396 89.7644 54.5156 89.4104 54.4916 89.0444C54.4776 88.8434 54.4636 88.6394 54.4496 88.4304C54.4096 87.8414 54.3656 87.2224 54.3196 86.5784C54.3026 86.3494 54.2866 86.1164 54.2696 85.8804C54.1126 83.7064 53.9286 81.2764 53.7326 78.7494C53.7296 78.7094 53.7266 78.6704 53.7236 78.6304C53.6866 78.1564 53.6496 77.6804 53.6126 77.2014C53.6096 77.1604 53.6066 77.1204 53.6026 77.0794C53.5656 76.6004 53.5276 76.1194 53.4896 75.6364C53.4446 75.0714 53.4006 74.5054 53.3556 73.9384C53.2966 73.1934 53.2366 72.4484 53.1776 71.7074C53.1746 71.6654 53.1706 71.6244 53.1676 71.5824C52.5636 64.0424 51.9696 56.9464 51.7496 54.3234L51.7866 54.3064L51.9036 54.2524C51.9786 54.2174 52.0506 54.1774 52.1166 54.1324C52.4556 53.9014 52.6776 53.5394 52.7376 53.1394C52.7596 52.9884 52.7606 52.8314 52.7326 52.6744L52.5336 51.5354L52.5336 51.5354L52.4656 51.1444L52.4656 51.1444L52.2356 49.8274C52.2196 49.7374 52.1956 49.6504 52.1646 49.5674C52.1546 49.5404 52.1396 49.5154 52.1276 49.4894C52.1036 49.4354 52.0806 49.3814 52.0506 49.3314C52.0326 49.3014 52.0106 49.2754 51.9906 49.2474C51.9606 49.2054 51.9326 49.1614 51.8986 49.1234C51.8746 49.0954 51.8466 49.0724 51.8216 49.0464C51.7866 49.0114 51.7526 48.9764 51.7146 48.9454C51.6856 48.9214 51.6536 48.9024 51.6226 48.8804C51.5836 48.8534 51.5446 48.8254 51.5016 48.8024C51.4676 48.7844 51.4326 48.7694 51.3976 48.7534C51.3546 48.7334 51.3116 48.7144 51.2666 48.6984C51.2296 48.6854 51.1906 48.6774 51.1526 48.6674C51.1066 48.6554 51.0606 48.6444 51.0136 48.6374C50.9736 48.6314 50.9326 48.6294 50.8916 48.6264C50.8606 48.6244 50.8306 48.6184 50.7986 48.6184C50.7646 48.6184 50.7306 48.6194 50.6956 48.6224C49.5066 48.7054 48.2916 48.8174 47.0946 48.9444L47.0946 48.9444C46.6346 48.9934 46.1796 49.0444 45.7276 49.0974L45.7276 49.0974C44.6406 49.2244 43.5816 49.3604 42.5906 49.4974C42.3156 49.5354 42.0466 49.5734 41.7826 49.6104C41.2546 49.6854 40.7506 49.7604 40.2756 49.8314C39.3256 49.9754 38.4926 50.1084 37.8256 50.2194L37.6626 48.4764L35.9186 29.7794L33.4956 30.0054L33.8886 34.2184L33.8886 34.2184L34.3206 38.8504L34.3206 38.8504L34.3616 39.2884L34.3616 39.2884L35.4196 50.6344C35.2116 50.6714 34.9616 50.7164 34.6776 50.7674C34.5316 50.7934 34.3776 50.8224 34.2136 50.8524C33.1496 51.0494 31.7176 51.3254 30.0936 51.6654L30.0936 51.6654C28.2546 52.0514 26.1706 52.5194 24.0956 53.0514L24.0956 53.0514C23.3186 53.2504 22.5416 53.4584 21.7806 53.6744C21.5106 53.7514 21.2786 53.8994 21.1016 54.0934C21.0826 54.1134 21.0686 54.1374 21.0516 54.1594C20.8476 54.4094 20.7236 54.7224 20.7186 55.0564C20.7176 55.1464 20.7246 55.2384 20.7406 55.3304L20.8046 55.6984L21.2376 58.1764C21.2806 58.4214 21.3836 58.6444 21.5296 58.8294C21.7736 59.1384 22.1396 59.3444 22.5526 59.3794L22.7216 59.3934C22.7856 59.6334 22.8616 59.9154 22.9456 60.2294C23.0236 60.5214 23.1106 60.8434 23.2046 61.1934C23.2586 61.3954 23.3156 61.6064 23.3746 61.8264C23.6686 62.9194 24.0206 64.2264 24.4146 65.6894C24.4686 65.8904 24.5236 66.0954 24.5796 66.3024C24.9706 67.7514 25.3986 69.3354 25.8496 70.9994C25.9136 71.2374 25.9786 71.4764 26.0446 71.7174C27.9386 78.6994 30.1836 86.9084 31.7466 92.3984L31.7466 92.3984ZM34.7706 38.4184C34.7256 37.8354 34.6816 37.2614 34.6386 36.7054C34.5566 35.5944 34.4896 34.5554 34.4416 33.6654C34.3896 32.7754 34.3666 32.0314 34.3416 31.5114C34.3206 30.9914 34.3156 30.6934 34.3156 30.6934C34.3156 30.6934 34.3636 30.9874 34.4356 31.5034C34.5026 32.0194 34.6126 32.7554 34.7196 33.6414C34.8306 34.5264 34.9486 35.5604 35.0656 36.6684C35.1216 37.2224 35.1806 37.7954 35.2396 38.3774C35.2946 38.9604 35.3506 39.5514 35.4066 40.1434C35.4566 40.7354 35.5066 41.3274 35.5566 41.9104C35.6086 42.4934 35.6456 43.0674 35.6896 43.6234C35.7716 44.7344 35.8386 45.7734 35.8866 46.6634C35.9396 47.5534 35.9616 48.2974 35.9866 48.8174C36.0076 49.3374 36.0126 49.6354 36.0126 49.6354C36.0126 49.6354 35.9646 49.3414 35.8926 48.8254C35.8256 48.3094 35.7156 47.5734 35.6086 46.6884C35.4976 45.8034 35.3796 44.7694 35.2626 43.6614C35.2066 43.1074 35.1406 42.5344 35.0886 41.9524C35.0336 41.3694 34.9776 40.7784 34.9226 40.1864C34.8696 39.5934 34.8196 39.0014 34.7706 38.4184L34.7706 38.4184ZM22.1776 55.0794C27.7416 53.5024 34.1296 52.3414 35.9006 52.0324C36.2086 51.9784 36.3766 51.9504 36.3766 51.9504C36.3766 51.9504 36.5446 51.9194 36.8526 51.8664C37.5886 51.7374 39.1266 51.4774 41.0846 51.1874C39.8206 51.4334 38.5146 51.6944 37.2096 51.9644C36.3276 52.1514 35.4466 52.3374 34.5786 52.5214C33.7126 52.7144 32.8606 52.9044 32.0356 53.0874C31.2126 53.2804 30.4176 53.4674 29.6646 53.6444C28.9126 53.8304 28.2026 54.0064 27.5466 54.1694C26.8936 54.3424 26.2946 54.5004 25.7646 54.6404C25.2336 54.7764 24.7746 54.9154 24.3956 55.0224C23.6386 55.2384 23.2066 55.3624 23.2066 55.3624C23.2066 55.3624 23.6476 55.2724 24.4186 55.1134C24.8046 55.0364 25.2706 54.9324 25.8106 54.8374C26.3496 54.7384 26.9566 54.6264 27.6196 54.5034C28.2846 54.3914 29.0046 54.2704 29.7656 54.1424C30.5286 54.0234 31.3326 53.8984 32.1646 53.7684C32.9976 53.6484 33.8596 53.5244 34.7346 53.3984C35.6106 53.2814 36.5016 53.1634 37.3916 53.0444C40.9546 52.5854 44.5256 52.1924 47.2046 51.9214C48.9526 51.7444 50.3146 51.6194 51.0536 51.5534L51.2296 52.5624C51.0136 52.5974 50.6856 52.6514 50.2556 52.7224C49.4496 52.8514 48.3026 53.0564 46.9236 53.2914C45.5456 53.5294 43.9366 53.8014 42.2166 54.1134C40.4956 54.4254 38.6606 54.7584 36.8256 55.0914C34.9906 55.4244 33.1586 55.7734 31.4396 56.0964C29.7206 56.4174 28.1176 56.7234 26.7446 56.9914C25.3706 57.2574 24.2266 57.4784 23.4246 57.6334C23.1106 57.6944 22.8516 57.7444 22.6506 57.7834L22.1776 55.0794L22.1776 55.0794ZM23.9636 58.3894C24.2586 58.3484 24.5876 58.3024 24.9476 58.2524L36.4346 96.4034L27.5926 57.8844C27.8526 57.8484 28.1186 57.8114 28.3906 57.7724L39.1386 97.0054L31.0186 57.3964C31.2246 57.3664 31.4316 57.3364 31.6406 57.3054C31.6926 57.2974 31.7466 57.2904 31.7986 57.2824L41.6986 97.2994L34.4146 56.9044C34.7326 56.8584 35.0516 56.8114 35.3726 56.7644L44.2596 96.8524L37.9766 56.3744C38.4096 56.3094 38.8396 56.2434 39.2686 56.1784L46.3236 92.7004L41.8586 55.7864C41.9776 55.7684 42.0986 55.7504 42.2166 55.7324C43.2456 60.0814 48.7396 84.3874 46.0496 96.6884C45.9806 96.7024 45.9136 96.7164 45.8446 96.7304C45.2886 96.8484 44.6956 96.9494 44.1246 97.0474C43.5476 97.1464 42.9696 97.2464 42.3996 97.3224C42.1146 97.3614 41.8316 97.3994 41.5526 97.4374C41.2736 97.4754 40.9966 97.5104 40.7246 97.5343C40.4526 97.5624 40.1846 97.5883 39.9226 97.6073C39.6606 97.6283 39.4036 97.6524 39.1546 97.6593C38.9046 97.6723 38.6616 97.6803 38.4266 97.6814C38.1906 97.6893 37.9646 97.6874 37.7466 97.6784C37.3106 97.6674 36.9146 97.6293 36.5626 97.5854C36.2156 97.5254 35.9096 97.4704 35.6696 97.3884C35.4256 97.3144 35.2426 97.2324 35.1196 97.1704C34.9996 97.1004 34.9356 97.0634 34.9356 97.0634C34.9356 97.0634 34.9916 97.1114 35.0966 97.2024C35.2086 97.2854 35.3776 97.4104 35.6156 97.5224C35.8506 97.6444 36.1516 97.7534 36.5046 97.8574C36.8586 97.9494 37.2646 98.0434 37.7116 98.0944C37.9346 98.1254 38.1686 98.1504 38.4096 98.1674C38.6516 98.1914 38.9016 98.1954 39.1596 98.2024C39.6736 98.2154 40.2166 98.2114 40.7746 98.1734C41.0546 98.1604 41.3376 98.1384 41.6236 98.1114C41.9106 98.0884 42.2006 98.0634 42.4906 98.0204C43.0726 97.9514 43.6606 97.8594 44.2476 97.7664C44.8386 97.6564 45.4076 97.5514 45.9866 97.4204C46.1306 97.3894 46.2736 97.3574 46.4156 97.3264C46.5566 97.2904 46.6966 97.2534 46.8356 97.2174C47.1146 97.1464 47.3886 97.0744 47.6576 96.9944C47.9376 96.9164 48.2106 96.8324 48.4766 96.7434C49.1676 96.5314 49.8626 96.2824 50.5466 95.9794C51.3126 95.6364 52.0876 95.2154 52.6656 94.6084C52.8066 94.4564 52.9276 94.2894 53.0106 94.1154C53.0486 94.0304 53.0826 93.9354 53.0876 93.8644C53.0896 93.8514 53.0886 93.8534 53.0896 93.8524L53.0876 93.8074L53.0836 93.7224L53.0746 93.5534C53.0516 93.1014 53.0276 92.6463 53.0036 92.1884C52.9436 91.2744 52.8826 90.3494 52.8206 89.4174C52.6816 87.5514 52.5416 85.6564 52.4006 83.7614C52.1176 79.9704 51.8346 76.1784 51.5686 72.6244C51.3076 69.0694 51.0636 65.7514 50.8546 62.9074C50.6556 60.0624 50.4906 57.6914 50.3746 56.0324C50.2656 54.3724 50.2036 53.4234 50.2036 53.4234C50.2036 53.4234 50.3006 54.3694 50.4696 56.0244C50.6276 57.6804 50.8736 60.0454 51.1286 62.8854C51.3826 65.7254 51.6986 69.0384 51.9896 72.5914C52.2756 76.1454 52.5806 79.9354 52.8856 83.7264C53.0156 85.6234 53.1446 87.5214 53.2726 89.3884C53.3286 90.3234 53.3846 91.2514 53.4396 92.1684C53.4606 92.6264 53.4816 93.0824 53.5026 93.5344L53.5106 93.7034L53.5146 93.7884L53.5166 93.8274C53.5176 93.8544 53.5166 93.8844 53.5136 93.9004C53.4976 94.0554 53.4496 94.1734 53.3976 94.2924C53.2866 94.5234 53.1386 94.7194 52.9766 94.8934C52.3136 95.5764 51.5066 96.0034 50.7086 96.3424C49.9066 96.6814 49.1016 96.9484 48.3086 97.1654C47.5176 97.3904 46.7346 97.5564 45.9796 97.7204C45.2246 97.8534 44.4936 98.0064 43.7836 98.1004C42.3726 98.3334 41.0616 98.4354 39.9006 98.4794C38.7386 98.5244 37.7196 98.4454 36.8976 98.2954C36.0746 98.1454 35.4556 97.8804 35.0956 97.6134C34.9196 97.4744 34.7986 97.3504 34.7386 97.2514C34.6716 97.1564 34.6566 97.0974 34.6566 97.0974C32.7886 91.2724 24.9276 61.9854 23.9636 58.3894L23.9636 58.3894Z" id="Shape" fill="#3F3F3F" fill-rule="evenodd" stroke="none" />
      </g>
    </g>
  </g>
</svg>